  0
SECTION
  2
HEADER
  9
$ACADVER
  1
AC1009
  9
$INSBASE
 10
0.0
 20
0.0
 30
0.0
  9
$EXTMIN
 10
-994.53723442394755
 20
-369.5655547688375
 30
-0.0000000349181948
  9
$EXTMAX
 10
994.61692209934779
 20
549.53060368375645
 30
0.0000000814935746
  9
$LIMMIN
 10
0.0
 20
0.0
  9
$LIMMAX
 10
12.0
 20
9.0
  9
$ORTHOMODE
 70
     1
  9
$REGENMODE
 70
     1
  9
$FILLMODE
 70
     1
  9
$QTEXTMODE
 70
     0
  9
$MIRRTEXT
 70
     0
  9
$DRAGMODE
 70
     2
  9
$LTSCALE
 40
1.0
  9
$OSMODE
 70
    59
  9
$ATTMODE
 70
     1
  9
$TEXTSIZE
 40
4.0
  9
$TRACEWID
 40
0.05
  9
$TEXTSTYLE
  7
STANDARD
  9
$CLAYER
  8
0
  9
$CELTYPE
  6
BYLAYER
  9
$CECOLOR
 62
   256
  9
$DIMSCALE
 40
50.0
  9
$DIMASZ
 40
0.08
  9
$DIMEXO
 40
0.0625
  9
$DIMDLI
 40
0.38
  9
$DIMRND
 40
0.0
  9
$DIMDLE
 40
0.0
  9
$DIMEXE
 40
0.18
  9
$DIMTP
 40
0.0
  9
$DIMTM
 40
0.0
  9
$DIMTXT
 40
0.08
  9
$DIMCEN
 40
0.09
  9
$DIMTSZ
 40
0.0
  9
$DIMTOL
 70
     0
  9
$DIMLIM
 70
     0
  9
$DIMTIH
 70
     1
  9
$DIMTOH
 70
     1
  9
$DIMSE1
 70
     0
  9
$DIMSE2
 70
     0
  9
$DIMTAD
 70
     0
  9
$DIMZIN
 70
     0
  9
$DIMBLK
  1

  9
$DIMASO
 70
     1
  9
$DIMSHO
 70
     1
  9
$DIMPOST
  1

  9
$DIMAPOST
  1

  9
$DIMALT
 70
     0
  9
$DIMALTD
 70
     2
  9
$DIMALTF
 40
25.399999999999999
  9
$DIMLFAC
 40
1.0
  9
$DIMTOFL
 70
     0
  9
$DIMTVP
 40
0.0
  9
$DIMTIX
 70
     0
  9
$DIMSOXD
 70
     0
  9
$DIMSAH
 70
     0
  9
$DIMBLK1
  1

  9
$DIMBLK2
  1

  9
$DIMSTYLE
  2
STANDARD
  9
$DIMCLRD
 70
     0
  9
$DIMCLRE
 70
     0
  9
$DIMCLRT
 70
     0
  9
$DIMTFAC
 40
1.0
  9
$DIMGAP
 40
0.09
  9
$LUNITS
 70
     2
  9
$LUPREC
 70
     4
  9
$SKETCHINC
 40
0.1
  9
$FILLETRAD
 40
0.0
  9
$AUNITS
 70
     0
  9
$AUPREC
 70
     4
  9
$MENU
  1
.
  9
$ELEVATION
 40
0.0
  9
$PELEVATION
 40
0.0
  9
$THICKNESS
 40
0.0
  9
$LIMCHECK
 70
     0
  9
$BLIPMODE
 70
     0
  9
$CHAMFERA
 40
0.0
  9
$CHAMFERB
 40
0.0
  9
$SKPOLY
 70
     0
  9
$TDCREATE
 40
2458977.5138007989
  9
$TDUPDATE
 40
2458977.630922928
  9
$TDINDWG
 40
0.0584406597
  9
$TDUSRTIMER
 40
0.0584404977
  9
$USRTIMER
 70
     1
  9
$ANGBASE
 50
0.0
  9
$ANGDIR
 70
     0
  9
$PDMODE
 70
     3
  9
$PDSIZE
 40
1.0
  9
$PLINEWID
 40
0.0
  9
$COORDS
 70
     2
  9
$SPLFRAME
 70
     0
  9
$SPLINETYPE
 70
     6
  9
$SPLINESEGS
 70
     8
  9
$ATTDIA
 70
     0
  9
$ATTREQ
 70
     0
  9
$HANDLING
 70
     1
  9
$HANDSEED
  5
8EE
  9
$SURFTAB1
 70
     6
  9
$SURFTAB2
 70
     6
  9
$SURFTYPE
 70
     6
  9
$SURFU
 70
     6
  9
$SURFV
 70
     6
  9
$UCSNAME
  2

  9
$UCSORG
 10
0.0
 20
0.0
 30
0.0
  9
$UCSXDIR
 10
1.0
 20
0.0
 30
0.0
  9
$UCSYDIR
 10
0.0
 20
1.0
 30
0.0
  9
$PUCSNAME
  2

  9
$PUCSORG
 10
0.0
 20
0.0
 30
0.0
  9
$PUCSXDIR
 10
1.0
 20
0.0
 30
0.0
  9
$PUCSYDIR
 10
0.0
 20
1.0
 30
0.0
  9
$USERI1
 70
     0
  9
$USERI2
 70
     0
  9
$USERI3
 70
     0
  9
$USERI4
 70
     0
  9
$USERI5
 70
     0
  9
$USERR1
 40
0.0
  9
$USERR2
 40
0.0
  9
$USERR3
 40
0.0
  9
$USERR4
 40
0.0
  9
$USERR5
 40
0.0
  9
$WORLDVIEW
 70
     1
  9
$SHADEDGE
 70
     3
  9
$SHADEDIF
 70
    70
  9
$TILEMODE
 70
     1
  9
$MAXACTVP
 70
    64
  9
$PLIMCHECK
 70
     0
  9
$PEXTMIN
 10
0.0
 20
0.0
 30
0.0
  9
$PEXTMAX
 10
0.0
 20
0.0
 30
0.0
  9
$PLIMMIN
 10
0.0
 20
0.0
  9
$PLIMMAX
 10
12.0
 20
9.0
  9
$UNITMODE
 70
     0
  9
$VISRETAIN
 70
     1
  9
$PLINEGEN
 70
     0
  9
$PSLTSCALE
 70
     1
  0
ENDSEC
  0
SECTION
  2
TABLES
  0
TABLE
  2
VPORT
 70
     1
  0
VPORT
  2
*ACTIVE
 70
     0
 10
0.0
 20
0.0
 11
1.0
 21
1.0
 12
0.0398438377001185
 22
89.982524457459419
 13
0.0
 23
0.0
 14
0.5
 24
0.5
 15
0.5
 25
0.5
 16
0.0
 26
0.0
 36
1.0
 17
0.0
 27
0.0
 37
0.0
 40
990.07454721025795
 41
2.0168175937904258
 42
50.0
 43
0.0
 44
0.0
 50
0.0
 51
0.0
 71
     0
 72
  1000
 73
     1
 74
     3
 75
     0
 76
     0
 77
     0
 78
     0
  0
ENDTAB
  0
TABLE
  2
LTYPE
 70
     2
  0
LTYPE
  2
CONTINUOUS
 70
     0
  3
Solid line
 72
    65
 73
     0
 40
0.0
  0
LTYPE
  2
DASHED2
 70
     0
  3
Dashed (.5x) _ _ _ _ _ _ _ _ _ _ _ _ _ _ _ _ _
 72
    65
 73
     2
 40
0.375
 49
0.25
 49
-0.125
  0
ENDTAB
  0
TABLE
  2
LAYER
 70
     1
  0
LAYER
  2
0
 70
     0
 62
     7
  6
CONTINUOUS
  0
ENDTAB
  0
TABLE
  2
STYLE
 70
     3
  0
STYLE
  2
STANDARD
 70
     0
 40
0.0
 41
1.0
 50
0.0
 71
     0
 42
4.0
  3
txt
  4

  0
STYLE
  2
ANNOTATIVE
 70
     0
 40
0.0
 41
1.0
 50
0.0
 71
     0
 42
0.2
  3
txt
  4

  0
STYLE
  2
LEGEND
 70
     0
 40
0.0
 41
1.0
 50
0.0
 71
     0
 42
0.2
  3
txt
  4

  0
ENDTAB
  0
TABLE
  2
VIEW
 70
     1
  0
ENDTAB
  0
TABLE
  2
UCS
 70
     0
  0
ENDTAB
  0
TABLE
  2
APPID
 70
    38
  0
APPID
  2
ACAD
 70
     0
  0
APPID
  2
ACADANNOPO
 70
     0
  0
APPID
  2
ACADANNOTATIVE
 70
     0
  0
APPID
  2
ACAD_DSTYLE_DIMJAG
 70
     0
  0
APPID
  2
ACAD_DSTYLE_DIMTALN
 70
     0
  0
APPID
  2
ACAD_MLEADERVER
 70
     0
  0
APPID
  2
ACAD_NAV_VCDISPLAY
 70
     0
  0
APPID
  2
ACMAPDMDISPLAYSTYLEREGAPP
 70
     0
  0
APPID
  2
AECCLAND100
 70
     0
  0
APPID
  2
SCLEADER
 70
     0
  0
APPID
  2
CGSURVEY_FOR_AUTOCAD8003671157
 70
     0
  0
APPID
  2
PNTNO
 70
     0
  0
APPID
  2
SPT
 70
     0
  0
APPID
  2
DEFAREA
 70
     0
  0
APPID
  2
ANNOT_TRANSFORM
 70
     0
  0
APPID
  2
LINE_CURVE_TBL_SETTINGS
 70
     0
  0
APPID
  2
CUSTOM_TABLE
 70
     0
  0
APPID
  2
LOT_LIMIT
 70
     0
  0
APPID
  2
LOT_SUBAREA
 70
     0
  0
APPID
  2
TK_LIMIT
 70
     0
  0
APPID
  2
TK_RM_OVERX
 70
     0
  0
APPID
  2
TK_EXIST_CONTOUR
 70
     0
  0
APPID
  2
TK_EXCLU
 70
     0
  0
APPID
  2
TK_TOPSOIL_REMOVE_INCLU
 70
     0
  0
APPID
  2
TK_TOPSOIL_REPLACE_INCLU
 70
     0
  0
APPID
  2
TK_TRENCH_SUBGRADE_INCLU
 70
     0
  0
APPID
  2
TK_TRENCH_SUBGRADE_EXCLU
 70
     0
  0
APPID
  2
TK_DESIGN_CONTOUR
 70
     0
  0
APPID
  2
TK_AOI_INCLU
 70
     0
  0
APPID
  2
TK_AOI_EXCLU
 70
     0
  0
APPID
  2
TK_SPECIAL_FILL
 70
     0
  0
APPID
  2
CRDUTIL
 70
     0
  0
APPID
  2
GNSS_DRAW
 70
     0
  0
APPID
  2
ADE
 70
     0
  0
APPID
  2
DCO15
 70
     0
  0
APPID
  2
MAPGWS
 70
     0
  0
APPID
  2
ADE_PROJECTION
 70
     0
  0
APPID
  2
MapManagementAppName
 70
     0
  0
ENDTAB
  0
TABLE
  2
DIMSTYLE
 70
     2
  0
DIMSTYLE
  2
STANDARD
 70
     0
  3

  4

  5

  6

  7

 40
1.0
 41
0.18
 42
0.0625
 43
0.38
 44
0.18
 45
0.0
 46
0.0
 47
0.0
 48
0.0
140
0.18
141
0.09
142
0.0
143
25.399999999999999
144
1.0
145
0.0
146
1.0
147
0.09
 71
     0
 72
     0
 73
     1
 74
     1
 75
     0
 76
     0
 77
     0
 78
     0
170
     0
171
     2
172
     0
173
     0
174
     0
175
     0
176
     0
177
     0
178
     0
  0
DIMSTYLE
  2
ANNOTATIVE
 70
     0
  3

  4

  5

  6

  7

 40
0.0
 41
0.18
 42
0.0625
 43
0.38
 44
0.18
 45
0.0
 46
0.0
 47
0.0
 48
0.0
140
0.18
141
0.09
142
0.0
143
25.399999999999999
144
1.0
145
0.0
146
1.0
147
0.09
 71
     0
 72
     0
 73
     1
 74
     1
 75
     0
 76
     0
 77
     0
 78
     0
170
     0
171
     2
172
     0
173
     0
174
     0
175
     0
176
     0
177
     0
178
     0
  0
ENDTAB
  0
ENDSEC
  0
SECTION
  2
BLOCKS
  0
BLOCK
  8
0
  2
$MODEL_SPACE
 70
     0
 10
0.0
 20
0.0
 30
0.0
  3
$MODEL_SPACE
  1

  0
ENDBLK
  5
21
  8
0
  0
BLOCK
 67
     1
  8
0
  2
$PAPER_SPACE
 70
     0
 10
0.0
 20
0.0
 30
0.0
  3
$PAPER_SPACE
  1

  0
ENDBLK
  5
5B
 67
     1
  8
0
  0
ENDSEC
  0
SECTION
  2
ENTITIES
  0
LINE
  5
4ED
  8
0
 10
-17.999999999999961
 20
-0.0000000000000018
 30
0.0
 11
17.999999999999972
 21
0.0000000000000018
 31
0.0
  0
LINE
  5
572
  8
0
 10
-18.461967003686979
 20
7.9999999999999982
 30
0.0
 11
18.461967003687018
 21
7.9999999999999982
 31
0.0
  0
LINE
  5
573
  8
0
 10
-19.866798094426979
 20
16.0
 30
0.0
 11
19.866798094427018
 21
16.0
 31
0.0
  0
LINE
  5
574
  8
0
 10
-22.275388080878511
 20
24.000000000000011
 30
0.0
 11
22.275388080878539
 21
24.000000000000011
 31
0.0
  0
LINE
  5
575
  8
0
 10
-25.805186603734629
 20
32.0
 30
0.0
 11
25.805186603734661
 21
32.000000000000007
 31
0.0
  0
LINE
  5
576
  8
0
 10
-23.984172530217101
 20
40.0
 30
0.0
 11
23.98417253021713
 21
40.0
 31
0.0
  0
LINE
  5
577
  8
0
 10
-29.39647228045099
 20
48.0
 30
0.0
 11
29.396472280451
 21
48.00000000000005
 31
0.0
  0
LINE
  5
578
  8
0
 10
-35.518414742067883
 20
56.000000000000007
 30
0.0
 11
35.518414742067932
 21
55.999999999999972
 31
0.0
  0
LINE
  5
579
  8
0
 10
-47.551816298552708
 20
64.0
 30
0.0
 11
47.551816298552787
 21
63.999999999999993
 31
0.0
  0
LINE
  5
57A
  8
0
 10
-61.598854217525421
 20
71.999999999999986
 30
0.0
 11
61.598854217525428
 21
72.0
 31
0.0
  0
LINE
  5
57C
  8
0
 10
228.99999999999989
 20
81.500000000000014
 30
0.0
 11
-229.0
 21
81.499999999999986
 31
0.0
  0
LINE
  5
586
  8
0
 10
-63.974157965706162
 20
65.397131103569478
 30
0.0
 11
-61.598854217525421
 21
71.999999999999986
 31
0.0
  0
LINE
  5
58A
  8
0
 10
-40.217643860718781
 20
50.937498936620173
 30
0.0
 11
-35.518414742067883
 21
56.000000000000007
 31
0.0
  0
LINE
  5
58B
  8
0
 10
-51.365245638749137
 20
59.367748207693253
 30
0.0
 11
-47.551816298552723
 21
64.0
 31
0.0
  0
LINE
  5
591
  8
0
 10
-34.698396592692717
 20
45.191157073231018
 30
0.0
 11
-29.39647228045099
 21
48.0
 31
0.0
  0
LINE
  5
592
  8
0
 10
-29.873105051139341
 20
38.850881309861968
 30
0.0
 11
-23.984172530217101
 21
40.0
 31
0.0
  0
LINE
  5
595
  8
0
 10
-18.461967003686979
 20
-8.0000000000000018
 30
0.0
 11
18.461967003687018
 21
-8.0000000000000018
 31
0.0
  0
LINE
  5
596
  8
0
 10
-19.866798094426979
 20
-16.0
 30
0.0
 11
19.866798094427018
 21
-16.0
 31
0.0
  0
LINE
  5
597
  8
0
 10
-22.275388080878511
 20
-24.000000000000011
 30
0.0
 11
22.275388080878539
 21
-24.000000000000011
 31
0.0
  0
LINE
  5
598
  8
0
 10
-25.805186603734629
 20
-32.0
 30
0.0
 11
25.805186603734661
 21
-32.0
 31
0.0
  0
LINE
  5
59D
  8
0
 10
-49.312960313739907
 20
-72.0
 30
0.0
 11
49.312960313739922
 21
-72.000000000000014
 31
0.0
  0
LINE
  5
59F
  8
0
 10
-40.217643860718781
 20
-50.937498936620173
 30
0.0
 11
-35.518414742067883
 21
-56.000000000000007
 31
0.0
  0
LINE
  5
5DA
  8
0
 10
-54.93559192398677
 20
-61.398773006134967
 30
0.0
 11
-49.3129603137399
 21
-71.999999999999986
 31
0.0
  0
LINE
  5
5DF
  8
0
 10
-47.235424965578197
 20
-56.648159699123681
 30
0.0
 11
-42.009858468661633
 21
-64.0
 31
0.0
  0
LINE
  5
5E8
  8
0
 10
-120.06440807601309
 20
-61.398773006134967
 30
0.0
 11
-125.68703968625999
 21
-71.999999999999986
 31
0.0
  0
LINE
  5
606
  8
0
 10
63.974157965706183
 20
65.397131103569478
 30
0.0
 11
61.598854217525449
 21
71.999999999999986
 31
0.0
  0
LINE
  5
607
  8
0
 10
40.217643860718823
 20
50.937498936620173
 30
0.0
 11
35.518414742067911
 21
56.000000000000007
 31
0.0
  0
LINE
  5
609
  8
0
 10
34.698396592692752
 20
45.191157073231018
 30
0.0
 11
29.396472280451029
 21
48.000000000000021
 31
0.0
  0
LINE
  5
60A
  8
0
 10
29.873105051139358
 20
38.850881309861968
 30
0.0
 11
23.98417253021713
 21
40.0
 31
0.0
  0
LINE
  5
60B
  8
0
 10
40.217643860718823
 20
-50.937498936620173
 30
0.0
 11
35.518414742067911
 21
-56.000000000000007
 31
0.0
  0
LINE
  5
60E
  8
0
 10
54.935591923986813
 20
-61.398773006134967
 30
0.0
 11
49.312960313739922
 21
-71.999999999999986
 31
0.0
  0
LINE
  5
60F
  8
0
 10
47.235424965578233
 20
-56.648159699123681
 30
0.0
 11
42.009858468661662
 21
-64.0
 31
0.0
  0
LINE
  5
613
  8
0
 10
125.68703968625999
 20
-72.0
 30
0.0
 11
228.99999999999989
 21
-72.000000000000014
 31
0.0
  0
LINE
  5
614
  8
0
 10
120.06440807601309
 20
-61.398773006134967
 30
0.0
 11
125.68703968625999
 21
-71.999999999999986
 31
0.0
  0
LINE
  5
615
  8
0
 10
156.9999999999998
 20
-0.0000000000000018
 30
0.0
 11
228.99999999999989
 21
0.0000000000000053
 31
0.0
  0
LINE
  5
616
  8
0
 10
156.53803299631281
 20
7.9999999999999982
 30
0.0
 11
228.99999999999989
 21
7.9999999999999982
 31
0.0
  0
LINE
  5
617
  8
0
 10
155.1332019055728
 20
16.0
 30
0.0
 11
228.99999999999989
 21
16.0
 31
0.0
  0
LINE
  5
618
  8
0
 10
152.72461191912129
 20
24.000000000000011
 30
0.0
 11
228.99999999999989
 21
24.000000000000011
 31
0.0
  0
LINE
  5
619
  8
0
 10
149.19481339626509
 20
32.0
 30
0.0
 11
228.99999999999989
 21
32.000000000000021
 31
0.0
  0
LINE
  5
61A
  8
0
 10
151.01582746978281
 20
40.0
 30
0.0
 11
228.99999999999989
 21
40.0
 31
0.0
  0
LINE
  5
61B
  8
0
 10
145.60352771954879
 20
47.999999999999993
 30
0.0
 11
228.99999999999989
 21
48.000000000000028
 31
0.0
  0
LINE
  5
61C
  8
0
 10
139.4815852579319
 20
56.000000000000007
 30
0.0
 11
228.99999999999989
 21
55.999999999999957
 31
0.0
  0
LINE
  5
61D
  8
0
 10
127.44818370144711
 20
64.0
 30
0.0
 11
228.99999999999989
 21
64.0
 31
0.0
  0
LINE
  5
61E
  8
0
 10
113.4011457824744
 20
71.999999999999986
 30
0.0
 11
228.99999999999989
 21
71.999999999999986
 31
0.0
  0
LINE
  5
61F
  8
0
 10
111.0258420342936
 20
65.397131103569478
 30
0.0
 11
113.4011457824744
 21
71.999999999999986
 31
0.0
  0
LINE
  5
624
  8
0
 10
156.53803299631281
 20
-8.0000000000000018
 30
0.0
 11
228.99999999999989
 21
-8.0000000000000018
 31
0.0
  0
LINE
  5
625
  8
0
 10
155.1332019055728
 20
-16.0
 30
0.0
 11
228.99999999999989
 21
-16.0
 31
0.0
  0
LINE
  5
626
  8
0
 10
152.72461191912129
 20
-24.000000000000011
 30
0.0
 11
228.99999999999989
 21
-24.0
 31
0.0
  0
LINE
  5
627
  8
0
 10
149.19481339626509
 20
-32.0
 30
0.0
 11
228.99999999999989
 21
-32.0
 31
0.0
  0
LINE
  5
628
  8
0
 10
151.01582746978281
 20
-40.0
 30
0.0
 11
228.99999999999989
 21
-40.0
 31
0.0
  0
LINE
  5
629
  8
0
 10
145.60352771954879
 20
-47.999999999999993
 30
0.0
 11
228.99999999999989
 21
-48.0
 31
0.0
  0
LINE
  5
62A
  8
0
 10
139.4815852579319
 20
-56.000000000000007
 30
0.0
 11
228.99999999999989
 21
-56.0
 31
0.0
  0
LINE
  5
62B
  8
0
 10
132.9901415313382
 20
-64.000000000000014
 30
0.0
 11
228.99999999999989
 21
-64.000000000000014
 31
0.0
  0
LINE
  5
631
  8
0
 10
228.99999999999989
 20
-72.000000000000014
 30
0.0
 11
228.99999999999989
 21
-64.000000000000014
 31
0.0
  0
LINE
  5
632
  8
0
 10
228.99999999999989
 20
-64.000000000000014
 30
0.0
 11
228.99999999999989
 21
-56.0
 31
0.0
  0
LINE
  5
633
  8
0
 10
228.99999999999989
 20
-56.0
 30
0.0
 11
228.99999999999989
 21
-48.0
 31
0.0
  0
LINE
  5
634
  8
0
 10
228.99999999999989
 20
-48.0
 30
0.0
 11
228.99999999999989
 21
-40.0
 31
0.0
  0
LINE
  5
635
  8
0
 10
228.99999999999989
 20
-40.0
 30
0.0
 11
228.99999999999989
 21
-32.0
 31
0.0
  0
LINE
  5
636
  8
0
 10
228.99999999999989
 20
-32.0
 30
0.0
 11
228.99999999999989
 21
-24.0
 31
0.0
  0
LINE
  5
637
  8
0
 10
228.99999999999989
 20
-24.0
 30
0.0
 11
228.99999999999989
 21
-16.0
 31
0.0
  0
LINE
  5
638
  8
0
 10
228.99999999999989
 20
-16.0
 30
0.0
 11
228.99999999999989
 21
-8.0000000000000018
 31
0.0
  0
LINE
  5
639
  8
0
 10
228.99999999999989
 20
-8.0000000000000018
 30
0.0
 11
228.99999999999989
 21
0.0000000000000053
 31
0.0
  0
LINE
  5
63A
  8
0
 10
228.99999999999989
 20
0.0000000000000053
 30
0.0
 11
228.99999999999989
 21
7.9999999999999982
 31
0.0
  0
LINE
  5
63B
  8
0
 10
228.99999999999989
 20
7.9999999999999982
 30
0.0
 11
228.99999999999989
 21
16.0
 31
0.0
  0
LINE
  5
63C
  8
0
 10
228.99999999999989
 20
16.0
 30
0.0
 11
228.99999999999989
 21
24.000000000000011
 31
0.0
  0
LINE
  5
63D
  8
0
 10
228.99999999999989
 20
24.000000000000011
 30
0.0
 11
228.99999999999989
 21
32.000000000000021
 31
0.0
  0
LINE
  5
63E
  8
0
 10
228.99999999999989
 20
32.000000000000021
 30
0.0
 11
228.99999999999989
 21
40.0
 31
0.0
  0
LINE
  5
63F
  8
0
 10
228.99999999999989
 20
40.0
 30
0.0
 11
228.99999999999989
 21
48.000000000000028
 31
0.0
  0
LINE
  5
640
  8
0
 10
228.99999999999989
 20
48.000000000000028
 30
0.0
 11
228.99999999999989
 21
55.999999999999957
 31
0.0
  0
LINE
  5
641
  8
0
 10
228.99999999999989
 20
55.999999999999957
 30
0.0
 11
228.99999999999989
 21
64.0
 31
0.0
  0
LINE
  5
642
  8
0
 10
228.99999999999989
 20
64.0
 30
0.0
 11
228.99999999999989
 21
71.999999999999986
 31
0.0
  0
LINE
  5
643
  8
0
 10
228.99999999999989
 20
71.999999999999986
 30
0.0
 11
228.99999999999989
 21
81.500000000000014
 31
0.0
  0
LINE
  5
644
  8
0
 10
-125.68703968625999
 20
-72.0
 30
0.0
 11
-228.99999999999989
 21
-72.000000000000014
 31
0.0
  0
LINE
  5
645
  8
0
 10
-156.9999999999998
 20
-0.0000000000000018
 30
0.0
 11
-228.99999999999989
 21
0.0000000000000053
 31
0.0
  0
LINE
  5
646
  8
0
 10
-156.53803299631281
 20
7.9999999999999982
 30
0.0
 11
-228.99999999999989
 21
7.9999999999999982
 31
0.0
  0
LINE
  5
647
  8
0
 10
-155.1332019055728
 20
16.0
 30
0.0
 11
-228.99999999999989
 21
16.0
 31
0.0
  0
LINE
  5
648
  8
0
 10
-152.72461191912129
 20
24.000000000000011
 30
0.0
 11
-228.99999999999989
 21
24.000000000000011
 31
0.0
  0
LINE
  5
649
  8
0
 10
-149.19481339626509
 20
32.0
 30
0.0
 11
-228.99999999999989
 21
32.000000000000021
 31
0.0
  0
LINE
  5
64A
  8
0
 10
-151.01582746978269
 20
40.0
 30
0.0
 11
-228.99999999999989
 21
40.0
 31
0.0
  0
LINE
  5
64B
  8
0
 10
-145.60352771954891
 20
47.999999999999979
 30
0.0
 11
-228.99999999999989
 21
48.000000000000028
 31
0.0
  0
LINE
  5
64C
  8
0
 10
-139.4815852579319
 20
56.000000000000007
 30
0.0
 11
-228.99999999999989
 21
55.999999999999957
 31
0.0
  0
LINE
  5
64D
  8
0
 10
-127.44818370144721
 20
64.0
 30
0.0
 11
-228.99999999999989
 21
64.0
 31
0.0
  0
LINE
  5
64E
  8
0
 10
-113.4011457824744
 20
71.999999999999986
 30
0.0
 11
-228.99999999999989
 21
71.999999999999986
 31
0.0
  0
LINE
  5
64F
  8
0
 10
-156.53803299631281
 20
-8.0000000000000018
 30
0.0
 11
-228.99999999999989
 21
-8.0000000000000018
 31
0.0
  0
LINE
  5
650
  8
0
 10
-155.1332019055728
 20
-16.0
 30
0.0
 11
-228.99999999999989
 21
-16.0
 31
0.0
  0
LINE
  5
651
  8
0
 10
-152.72461191912129
 20
-24.000000000000011
 30
0.0
 11
-228.99999999999989
 21
-24.0
 31
0.0
  0
LINE
  5
652
  8
0
 10
-149.19481339626509
 20
-32.0
 30
0.0
 11
-228.99999999999989
 21
-32.0
 31
0.0
  0
LINE
  5
653
  8
0
 10
-151.01582746978269
 20
-40.0
 30
0.0
 11
-228.99999999999989
 21
-40.0
 31
0.0
  0
LINE
  5
654
  8
0
 10
-145.60352771954891
 20
-47.999999999999993
 30
0.0
 11
-228.99999999999989
 21
-48.0
 31
0.0
  0
LINE
  5
655
  8
0
 10
-139.4815852579319
 20
-56.000000000000007
 30
0.0
 11
-228.99999999999989
 21
-56.0
 31
0.0
  0
LINE
  5
656
  8
0
 10
-132.9901415313382
 20
-64.000000000000014
 30
0.0
 11
-228.99999999999989
 21
-64.000000000000014
 31
0.0
  0
LINE
  5
657
  8
0
 10
-228.99999999999989
 20
-72.000000000000014
 30
0.0
 11
-228.99999999999989
 21
-64.000000000000014
 31
0.0
  0
LINE
  5
658
  8
0
 10
-228.99999999999989
 20
-64.000000000000014
 30
0.0
 11
-228.99999999999989
 21
-56.0
 31
0.0
  0
LINE
  5
659
  8
0
 10
-228.99999999999989
 20
-56.0
 30
0.0
 11
-228.99999999999989
 21
-48.0
 31
0.0
  0
LINE
  5
65A
  8
0
 10
-228.99999999999989
 20
-48.0
 30
0.0
 11
-228.99999999999989
 21
-40.0
 31
0.0
  0
LINE
  5
65B
  8
0
 10
-228.99999999999989
 20
-40.0
 30
0.0
 11
-228.99999999999989
 21
-32.0
 31
0.0
  0
LINE
  5
65C
  8
0
 10
-228.99999999999989
 20
-32.0
 30
0.0
 11
-228.99999999999989
 21
-24.0
 31
0.0
  0
LINE
  5
65D
  8
0
 10
-228.99999999999989
 20
-24.0
 30
0.0
 11
-228.99999999999989
 21
-16.0
 31
0.0
  0
LINE
  5
65E
  8
0
 10
-228.99999999999989
 20
-16.0
 30
0.0
 11
-228.99999999999989
 21
-8.0000000000000018
 31
0.0
  0
LINE
  5
65F
  8
0
 10
-228.99999999999989
 20
-8.0000000000000018
 30
0.0
 11
-228.99999999999989
 21
0.0000000000000053
 31
0.0
  0
LINE
  5
660
  8
0
 10
-228.99999999999989
 20
0.0000000000000053
 30
0.0
 11
-228.99999999999989
 21
7.9999999999999982
 31
0.0
  0
LINE
  5
661
  8
0
 10
-228.99999999999989
 20
7.9999999999999982
 30
0.0
 11
-228.99999999999989
 21
16.0
 31
0.0
  0
LINE
  5
662
  8
0
 10
-228.99999999999989
 20
16.0
 30
0.0
 11
-228.99999999999989
 21
24.000000000000011
 31
0.0
  0
LINE
  5
663
  8
0
 10
-228.99999999999989
 20
24.000000000000011
 30
0.0
 11
-228.99999999999989
 21
32.000000000000021
 31
0.0
  0
LINE
  5
664
  8
0
 10
-228.99999999999989
 20
32.000000000000021
 30
0.0
 11
-228.99999999999989
 21
40.0
 31
0.0
  0
LINE
  5
665
  8
0
 10
-228.99999999999989
 20
40.0
 30
0.0
 11
-228.99999999999989
 21
48.000000000000028
 31
0.0
  0
LINE
  5
666
  8
0
 10
-228.99999999999989
 20
48.000000000000028
 30
0.0
 11
-228.99999999999989
 21
55.999999999999957
 31
0.0
  0
LINE
  5
667
  8
0
 10
-228.99999999999989
 20
55.999999999999957
 30
0.0
 11
-228.99999999999989
 21
64.0
 31
0.0
  0
LINE
  5
668
  8
0
 10
-228.99999999999989
 20
64.0
 30
0.0
 11
-228.99999999999989
 21
71.999999999999986
 31
0.0
  0
LINE
  5
669
  8
0
 10
-228.99999999999989
 20
71.999999999999986
 30
0.0
 11
-228.99999999999989
 21
81.500000000000014
 31
0.0
  0
LINE
  5
66A
  8
0
 10
-125.68703968625999
 20
-71.999999999999986
 30
0.0
 11
-116.6555904756687
 21
-76.130425079134341
 31
0.0
  0
LINE
  5
66B
  8
0
 10
-116.6555904756687
 20
-76.130425079134341
 30
0.0
 11
-107.1808829026271
 21
-79.111016469817102
 31
0.0
  0
LINE
  5
66C
  8
0
 10
-107.1808829026271
 20
-79.111016469817102
 30
0.0
 11
-97.414025148228163
 21
-80.917255168937203
 31
0.0
  0
LINE
  5
66D
  8
0
 10
-97.414025148228163
 20
-80.917255168937203
 30
0.0
 11
-87.499999999999886
 21
-81.522328712534929
 31
0.0
  0
LINE
  5
66E
  8
0
 10
-87.499999999999886
 20
-81.522328712534929
 30
0.0
 11
-77.585974851771795
 21
-80.917255168937217
 31
0.0
  0
LINE
  5
66F
  8
0
 10
-77.585974851771795
 20
-80.917255168937217
 30
0.0
 11
-67.819117097372754
 21
-79.111016469817102
 31
0.0
  0
LINE
  5
670
  8
0
 10
-67.819117097372754
 20
-79.111016469817102
 30
0.0
 11
-58.344409524331169
 21
-76.130425079134355
 31
0.0
  0
LINE
  5
671
  8
0
 10
-58.344409524331169
 20
-76.130425079134355
 30
0.0
 11
-49.3129603137399
 21
-71.999999999999986
 31
0.0
  0
LINE
  5
672
  8
0
 10
-87.499999999999957
 20
60.676781311628361
 30
0.0
 11
-92.731778855654341
 21
60.450808765017378
 31
0.0
  0
LINE
  5
673
  8
0
 10
-92.731778855654341
 20
60.450808765017378
 30
0.0
 11
-97.924589316289385
 21
59.774574259678992
 31
0.0
  0
LINE
  5
674
  8
0
 10
-97.924589316289385
 20
59.774574259678992
 30
0.0
 11
-103.0397532391798
 21
58.653114662433502
 31
0.0
  0
LINE
  5
675
  8
0
 10
-103.0397532391798
 20
58.653114662433502
 30
0.0
 11
-108.0088373862127
 21
57.104238068215871
 31
0.0
  0
LINE
  5
676
  8
0
 10
-108.0088373862127
 20
57.104238068215871
 30
0.0
 11
-113.6746343338344
 21
54.73755361120002
 31
0.0
  0
LINE
  5
677
  8
0
 10
-113.6746343338344
 20
54.73755361120002
 30
0.0
 11
-119.04580189650061
 21
51.828309258123333
 31
0.0
  0
LINE
  5
678
  8
0
 10
-119.04580189650061
 20
51.828309258123333
 30
0.0
 11
-124.09722658587999
 21
48.393741992851609
 31
0.0
  0
LINE
  5
679
  8
0
 10
-124.09722658587999
 20
48.393741992851609
 30
0.0
 11
-128.7540288346141
 21
44.488521503365881
 31
0.0
  0
LINE
  5
67A
  8
0
 10
-128.7540288346141
 20
44.488521503365881
 30
0.0
 11
-133.59350735010429
 21
39.44991811416137
 31
0.0
  0
LINE
  5
67B
  8
0
 10
-133.59350735010429
 20
39.44991811416137
 30
0.0
 11
-137.80577737193099
 21
33.915132640959328
 31
0.0
  0
LINE
  5
67C
  8
0
 10
-137.80577737193099
 20
33.915132640959328
 30
0.0
 11
-141.3442560639788
 21
27.95589381891245
 31
0.0
  0
LINE
  5
67D
  8
0
 10
-141.3442560639788
 20
27.95589381891245
 30
0.0
 11
-144.44047418960369
 21
20.938568369708829
 31
0.0
  0
LINE
  5
67E
  8
0
 10
-144.44047418960369
 20
20.938568369708829
 30
0.0
 11
-146.54157384547131
 21
13.95988069704935
 31
0.0
  0
LINE
  5
67F
  8
0
 10
-146.54157384547131
 20
13.95988069704935
 30
0.0
 11
-147.7672394307599
 21
6.9801628171269288
 31
0.0
  0
LINE
  5
680
  8
0
 10
-147.7672394307599
 20
6.9801628171269288
 30
0.0
 11
-148.17031504349441
 21
0.0000000000000018
 31
0.0
  0
LINE
  5
681
  8
0
 10
-148.17031504349441
 20
0.0000000000000018
 30
0.0
 11
-147.7672394307599
 21
-6.9801628171269456
 31
0.0
  0
LINE
  5
682
  8
0
 10
-147.7672394307599
 20
-6.9801628171269456
 30
0.0
 11
-146.54157384547131
 21
-13.95988069704935
 31
0.0
  0
LINE
  5
683
  8
0
 10
-146.54157384547131
 20
-13.95988069704935
 30
0.0
 11
-144.44047418960369
 21
-20.93856836970884
 31
0.0
  0
LINE
  5
684
  8
0
 10
-144.44047418960369
 20
-20.93856836970884
 30
0.0
 11
-141.3442560639788
 21
-27.955893818912472
 31
0.0
  0
LINE
  5
685
  8
0
 10
-141.3442560639788
 20
-27.955893818912472
 30
0.0
 11
-137.80577737193099
 21
-33.915132640959307
 31
0.0
  0
LINE
  5
686
  8
0
 10
-137.80577737193099
 20
-33.915132640959307
 30
0.0
 11
-133.59350735010429
 21
-39.449918114161378
 31
0.0
  0
LINE
  5
687
  8
0
 10
-133.59350735010429
 20
-39.449918114161378
 30
0.0
 11
-128.79929706767689
 21
-44.441390666478441
 31
0.0
  0
LINE
  5
688
  8
0
 10
-128.79929706767689
 20
-44.441390666478441
 30
0.0
 11
-122.64678322712309
 21
-49.447947419250539
 31
0.0
  0
LINE
  5
689
  8
0
 10
-122.64678322712309
 20
-49.447947419250539
 30
0.0
 11
-115.9095912614239
 21
-53.604453892034201
 31
0.0
  0
LINE
  5
68A
  8
0
 10
-115.9095912614239
 20
-53.604453892034201
 30
0.0
 11
-109.19747622776021
 21
-56.6559641363569
 31
0.0
  0
LINE
  5
68B
  8
0
 10
-109.19747622776021
 20
-56.6559641363569
 30
0.0
 11
-102.1464359649121
 21
-58.87410857414411
 31
0.0
  0
LINE
  5
68C
  8
0
 10
-102.1464359649121
 20
-58.87410857414411
 30
0.0
 11
-94.877978681468079
 21
-60.21830433888173
 31
0.0
  0
LINE
  5
68D
  8
0
 10
-94.877978681468079
 20
-60.21830433888173
 30
0.0
 11
-87.499999999999986
 21
-60.668597699917051
 31
0.0
  0
LINE
  5
68E
  8
0
 10
-87.499999999999986
 20
-60.668597699917051
 30
0.0
 11
-80.122021318531836
 21
-60.21830433888173
 31
0.0
  0
LINE
  5
68F
  8
0
 10
-80.122021318531836
 20
-60.21830433888173
 30
0.0
 11
-72.853564035087771
 21
-58.874108574144103
 31
0.0
  0
LINE
  5
690
  8
0
 10
-72.853564035087771
 20
-58.874108574144103
 30
0.0
 11
-65.802523772239695
 21
-56.655964136356907
 31
0.0
  0
LINE
  5
691
  8
0
 10
-65.802523772239695
 20
-56.655964136356907
 30
0.0
 11
-59.090408738576002
 21
-53.604453892034208
 31
0.0
  0
LINE
  5
692
  8
0
 10
-59.090408738576002
 20
-53.604453892034208
 30
0.0
 11
-52.353216772876799
 21
-49.447947419250561
 31
0.0
  0
LINE
  5
693
  8
0
 10
-52.353216772876799
 20
-49.447947419250561
 30
0.0
 11
-46.200702932322983
 21
-44.441390666478441
 31
0.0
  0
LINE
  5
694
  8
0
 10
-46.200702932322983
 20
-44.441390666478441
 30
0.0
 11
-41.406492649895618
 21
-39.449918114161392
 31
0.0
  0
LINE
  5
695
  8
0
 10
-41.406492649895618
 20
-39.449918114161392
 30
0.0
 11
-37.194222628068822
 21
-33.915132640959307
 31
0.0
  0
LINE
  5
696
  8
0
 10
-37.194222628068822
 20
-33.915132640959307
 30
0.0
 11
-33.655743936021082
 21
-27.955893818912472
 31
0.0
  0
LINE
  5
697
  8
0
 10
-33.655743936021082
 20
-27.955893818912472
 30
0.0
 11
-30.559525810396149
 21
-20.938568369708872
 31
0.0
  0
LINE
  5
698
  8
0
 10
-30.559525810396149
 20
-20.938568369708872
 30
0.0
 11
-28.458426154528571
 21
-13.959880697049259
 31
0.0
  0
LINE
  5
699
  8
0
 10
-28.458426154528571
 20
-13.959880697049259
 30
0.0
 11
-27.232760569239971
 21
-6.9801628171269341
 31
0.0
  0
LINE
  5
69A
  8
0
 10
-27.232760569239971
 20
-6.9801628171269341
 30
0.0
 11
-26.82968495650551
 21
-0.0000000000000053
 31
0.0
  0
LINE
  5
69B
  8
0
 10
-26.82968495650551
 20
-0.0000000000000053
 30
0.0
 11
-27.232760569239971
 21
6.980162817126943
 31
0.0
  0
LINE
  5
69C
  8
0
 10
-27.232760569239971
 20
6.980162817126943
 30
0.0
 11
-28.458426154528571
 21
13.95988069704924
 31
0.0
  0
LINE
  5
69D
  8
0
 10
-28.458426154528571
 20
13.95988069704924
 30
0.0
 11
-30.55952581039617
 21
20.938568369708911
 31
0.0
  0
LINE
  5
69E
  8
0
 10
-30.55952581039617
 20
20.938568369708911
 30
0.0
 11
-33.655743936021103
 21
27.955893818912489
 31
0.0
  0
LINE
  5
69F
  8
0
 10
-33.655743936021103
 20
27.955893818912489
 30
0.0
 11
-37.194222628068822
 21
33.915132640959307
 31
0.0
  0
LINE
  5
6A0
  8
0
 10
-37.194222628068822
 20
33.915132640959307
 30
0.0
 11
-41.40649264989559
 21
39.449918114161349
 31
0.0
  0
LINE
  5
6A1
  8
0
 10
-41.40649264989559
 20
39.449918114161349
 30
0.0
 11
-46.245971165385818
 21
44.488521503365867
 31
0.0
  0
LINE
  5
6A2
  8
0
 10
-46.245971165385818
 20
44.488521503365867
 30
0.0
 11
-50.90277341411992
 21
48.393741992851673
 31
0.0
  0
LINE
  5
6A3
  8
0
 10
-50.90277341411992
 20
48.393741992851673
 30
0.0
 11
-55.954198103499202
 21
51.828309258123291
 31
0.0
  0
LINE
  5
6A4
  8
0
 10
-55.954198103499202
 20
51.828309258123291
 30
0.0
 11
-61.325365666165503
 21
54.73755361120002
 31
0.0
  0
LINE
  5
6A5
  8
0
 10
-61.325365666165503
 20
54.73755361120002
 30
0.0
 11
-66.991162613787139
 21
57.104238068215857
 31
0.0
  0
LINE
  5
6A6
  8
0
 10
-66.991162613787139
 20
57.104238068215857
 30
0.0
 11
-71.960246760820084
 21
58.653114662433502
 31
0.0
  0
LINE
  5
6A7
  8
0
 10
-71.960246760820084
 20
58.653114662433502
 30
0.0
 11
-77.075410683710501
 21
59.774574259678992
 31
0.0
  0
LINE
  5
6A8
  8
0
 10
-77.075410683710501
 20
59.774574259678992
 30
0.0
 11
-82.268221144345588
 21
60.450808765017378
 31
0.0
  0
LINE
  5
6A9
  8
0
 10
-82.268221144345588
 20
60.450808765017378
 30
0.0
 11
-87.499999999999957
 21
60.676781311628361
 31
0.0
  0
LINE
  5
6AA
  8
0
 10
-87.499999999999957
 20
69.5
 30
0.0
 11
-93.492549746508814
 21
69.241168011058392
 31
0.0
  0
LINE
  5
6AB
  8
0
 10
-93.492549746508814
 20
69.241168011058392
 30
0.0
 11
-99.440464570148009
 21
68.466599929082491
 31
0.0
  0
LINE
  5
6AC
  8
0
 10
-99.440464570148009
 20
68.466599929082491
 30
0.0
 11
-105.29944200692159
 21
67.182065048956559
 31
0.0
  0
LINE
  5
6AD
  8
0
 10
-105.29944200692159
 20
67.182065048956559
 30
0.0
 11
-111.0258420342937
 21
65.397131103569478
 31
0.0
  0
LINE
  5
6AE
  8
0
 10
-111.0258420342937
 20
65.397131103569478
 30
0.0
 11
-117.48224566463099
 21
62.700198922377531
 31
0.0
  0
LINE
  5
6AF
  8
0
 10
-117.48224566463099
 20
62.700198922377531
 30
0.0
 11
-123.6347543612507
 21
59.367748207693253
 31
0.0
  0
LINE
  5
6B0
  8
0
 10
-123.6347543612507
 20
59.367748207693253
 30
0.0
 11
-129.42100734426111
 21
55.433556112181748
 31
0.0
  0
LINE
  5
6B1
  8
0
 10
-129.42100734426111
 20
55.433556112181748
 30
0.0
 11
-134.78235613928109
 21
50.937498936620173
 31
0.0
  0
LINE
  5
6B2
  8
0
 10
-134.78235613928109
 20
50.937498936620173
 30
0.0
 11
-140.3016034073072
 21
45.191157073231018
 31
0.0
  0
LINE
  5
6B3
  8
0
 10
-140.3016034073072
 20
45.191157073231018
 30
0.0
 11
-145.1268949488605
 21
38.850881309861968
 31
0.0
  0
LINE
  5
6B4
  8
0
 10
-145.1268949488605
 20
38.850881309861968
 30
0.0
 11
-149.19481339626529
 21
32.0
 31
0.0
  0
LINE
  5
6B5
  8
0
 10
-149.19481339626529
 20
32.0
 30
0.0
 11
-152.7246119191214
 21
24.000000000000011
 31
0.0
  0
LINE
  5
6B6
  8
0
 10
-152.7246119191214
 20
24.000000000000011
 30
0.0
 11
-155.13320190557289
 21
16.0
 31
0.0
  0
LINE
  5
6B7
  8
0
 10
-155.13320190557289
 20
16.0
 30
0.0
 11
-156.53803299631289
 21
7.9999999999999982
 31
0.0
  0
LINE
  5
6B8
  8
0
 10
-156.53803299631289
 20
7.9999999999999982
 30
0.0
 11
-156.99999999999989
 21
-0.0000000000000018
 31
0.0
  0
LINE
  5
6B9
  8
0
 10
-156.99999999999989
 20
-0.0000000000000018
 30
0.0
 11
-156.53803299631289
 21
-8.0000000000000018
 31
0.0
  0
LINE
  5
6BA
  8
0
 10
-156.53803299631289
 20
-8.0000000000000018
 30
0.0
 11
-155.13320190557289
 21
-16.0
 31
0.0
  0
LINE
  5
6BB
  8
0
 10
-155.13320190557289
 20
-16.0
 30
0.0
 11
-152.7246119191214
 21
-24.000000000000011
 31
0.0
  0
LINE
  5
6BC
  8
0
 10
-152.7246119191214
 20
-24.000000000000011
 30
0.0
 11
-149.19481339626529
 21
-32.0
 31
0.0
  0
LINE
  5
6BD
  8
0
 10
-149.19481339626529
 20
-32.0
 30
0.0
 11
-145.1268949488605
 21
-38.850881309861968
 31
0.0
  0
LINE
  5
6BE
  8
0
 10
-145.1268949488605
 20
-38.850881309861968
 30
0.0
 11
-140.3016034073072
 21
-45.191157073231018
 31
0.0
  0
LINE
  5
6BF
  8
0
 10
-140.3016034073072
 20
-45.191157073231018
 30
0.0
 11
-134.78235613928109
 21
-50.937498936620173
 31
0.0
  0
LINE
  5
6C0
  8
0
 10
-134.78235613928109
 20
-50.937498936620173
 30
0.0
 11
-127.7645750344217
 21
-56.648159699123681
 31
0.0
  0
LINE
  5
6C1
  8
0
 10
-127.7645750344217
 20
-56.648159699123681
 30
0.0
 11
-120.06440807601309
 21
-61.398773006134967
 31
0.0
  0
LINE
  5
6C2
  8
0
 10
-120.06440807601309
 20
-61.398773006134967
 30
0.0
 11
-112.3559329702686
 21
-64.903255667011877
 31
0.0
  0
LINE
  5
6C3
  8
0
 10
-112.3559329702686
 20
-64.903255667011877
 30
0.0
 11
-104.2784873584244
 21
-67.444290803322929
 31
0.0
  0
LINE
  5
6C4
  8
0
 10
-104.2784873584244
 20
-67.444290803322929
 30
0.0
 11
-95.951975779930223
 21
-68.984158365638351
 31
0.0
  0
LINE
  5
6C5
  8
0
 10
-95.951975779930223
 20
-68.984158365638351
 30
0.0
 11
-87.499999999999957
 21
-69.5
 31
0.0
  0
LINE
  5
6C6
  8
0
 10
-87.499999999999957
 20
-69.5
 30
0.0
 11
-79.048024220069678
 21
-68.984158365638351
 31
0.0
  0
LINE
  5
6C7
  8
0
 10
-79.048024220069678
 20
-68.984158365638351
 30
0.0
 11
-70.721512641575487
 21
-67.444290803322929
 31
0.0
  0
LINE
  5
6C8
  8
0
 10
-70.721512641575487
 20
-67.444290803322929
 30
0.0
 11
-62.644067029731247
 21
-64.903255667011877
 31
0.0
  0
LINE
  5
6C9
  8
0
 10
-62.644067029731247
 20
-64.903255667011877
 30
0.0
 11
-54.93559192398677
 21
-61.398773006134967
 31
0.0
  0
LINE
  5
6CA
  8
0
 10
-54.93559192398677
 20
-61.398773006134967
 30
0.0
 11
-47.235424965578197
 21
-56.648159699123681
 31
0.0
  0
LINE
  5
6CB
  8
0
 10
-47.235424965578197
 20
-56.648159699123681
 30
0.0
 11
-40.217643860718781
 21
-50.937498936620173
 31
0.0
  0
LINE
  5
6CC
  8
0
 10
-40.217643860718781
 20
-50.937498936620173
 30
0.0
 11
-34.698396592692717
 21
-45.191157073231018
 31
0.0
  0
LINE
  5
6CD
  8
0
 10
-34.698396592692717
 20
-45.191157073231018
 30
0.0
 11
-29.873105051139341
 21
-38.850881309861968
 31
0.0
  0
LINE
  5
6CE
  8
0
 10
-29.873105051139341
 20
-38.850881309861968
 30
0.0
 11
-25.805186603734629
 21
-32.0
 31
0.0
  0
LINE
  5
6CF
  8
0
 10
-25.805186603734629
 20
-32.0
 30
0.0
 11
-22.275388080878511
 21
-24.000000000000011
 31
0.0
  0
LINE
  5
6D0
  8
0
 10
-22.275388080878511
 20
-24.000000000000011
 30
0.0
 11
-19.866798094426979
 21
-16.0
 31
0.0
  0
LINE
  5
6D1
  8
0
 10
-19.866798094426979
 20
-16.0
 30
0.0
 11
-18.461967003686979
 21
-8.0000000000000018
 31
0.0
  0
LINE
  5
6D2
  8
0
 10
-18.461967003686979
 20
-8.0000000000000018
 30
0.0
 11
-17.999999999999961
 21
-0.0000000000000018
 31
0.0
  0
LINE
  5
6D3
  8
0
 10
-17.999999999999961
 20
-0.0000000000000018
 30
0.0
 11
-18.461967003686979
 21
7.9999999999999982
 31
0.0
  0
LINE
  5
6D4
  8
0
 10
-18.461967003686979
 20
7.9999999999999982
 30
0.0
 11
-19.866798094426979
 21
16.0
 31
0.0
  0
LINE
  5
6D5
  8
0
 10
-19.866798094426979
 20
16.0
 30
0.0
 11
-22.275388080878511
 21
24.000000000000011
 31
0.0
  0
LINE
  5
6D6
  8
0
 10
-22.275388080878511
 20
24.000000000000011
 30
0.0
 11
-25.805186603734629
 21
32.0
 31
0.0
  0
LINE
  5
6D7
  8
0
 10
-25.805186603734629
 20
32.0
 30
0.0
 11
-29.873105051139341
 21
38.850881309861968
 31
0.0
  0
LINE
  5
6D8
  8
0
 10
-29.873105051139341
 20
38.850881309861968
 30
0.0
 11
-34.698396592692717
 21
45.191157073231018
 31
0.0
  0
LINE
  5
6D9
  8
0
 10
-34.698396592692717
 20
45.191157073231018
 30
0.0
 11
-40.217643860718781
 21
50.937498936620173
 31
0.0
  0
LINE
  5
6DA
  8
0
 10
-40.217643860718781
 20
50.937498936620173
 30
0.0
 11
-45.578992655738801
 21
55.433556112181748
 31
0.0
  0
LINE
  5
6DB
  8
0
 10
-45.578992655738801
 20
55.433556112181748
 30
0.0
 11
-51.365245638749137
 21
59.367748207693253
 31
0.0
  0
LINE
  5
6DC
  8
0
 10
-51.365245638749137
 20
59.367748207693253
 30
0.0
 11
-57.517754335368878
 21
62.700198922377531
 31
0.0
  0
LINE
  5
6DD
  8
0
 10
-57.517754335368878
 20
62.700198922377531
 30
0.0
 11
-63.974157965706162
 21
65.397131103569478
 31
0.0
  0
LINE
  5
6DE
  8
0
 10
-63.974157965706162
 20
65.397131103569478
 30
0.0
 11
-69.700557993078291
 21
67.182065048956559
 31
0.0
  0
LINE
  5
6DF
  8
0
 10
-69.700557993078291
 20
67.182065048956559
 30
0.0
 11
-75.559535429851906
 21
68.466599929082491
 31
0.0
  0
LINE
  5
6E0
  8
0
 10
-75.559535429851906
 20
68.466599929082491
 30
0.0
 11
-81.507450253491086
 21
69.241168011058392
 31
0.0
  0
LINE
  5
6E1
  8
0
 10
-81.507450253491086
 20
69.241168011058392
 30
0.0
 11
-87.499999999999957
 21
69.5
 31
0.0
  0
LINE
  5
6E2
  8
0
 10
-87.499999999999957
 20
69.5
 30
0.0
 11
-87.499999999999957
 21
69.5
 31
0.0
  0
LINE
  5
6E3
  8
0
 10
125.68703968625999
 20
-71.999999999999986
 30
0.0
 11
116.6555904756687
 21
-76.130425079134341
 31
0.0
  0
LINE
  5
6E4
  8
0
 10
116.6555904756687
 20
-76.130425079134341
 30
0.0
 11
107.1808829026272
 21
-79.111016469817102
 31
0.0
  0
LINE
  5
6E5
  8
0
 10
107.1808829026272
 20
-79.111016469817102
 30
0.0
 11
97.414025148228205
 21
-80.917255168937203
 31
0.0
  0
LINE
  5
6E6
  8
0
 10
97.414025148228205
 20
-80.917255168937203
 30
0.0
 11
87.499999999999915
 21
-81.522328712534929
 31
0.0
  0
LINE
  5
6E7
  8
0
 10
87.499999999999915
 20
-81.522328712534929
 30
0.0
 11
77.585974851771823
 21
-80.917255168937217
 31
0.0
  0
LINE
  5
6E8
  8
0
 10
77.585974851771823
 20
-80.917255168937217
 30
0.0
 11
67.819117097372782
 21
-79.111016469817102
 31
0.0
  0
LINE
  5
6E9
  8
0
 10
67.819117097372782
 20
-79.111016469817102
 30
0.0
 11
58.344409524331212
 21
-76.130425079134355
 31
0.0
  0
LINE
  5
6EA
  8
0
 10
58.344409524331212
 20
-76.130425079134355
 30
0.0
 11
49.312960313739922
 21
-71.999999999999986
 31
0.0
  0
LINE
  5
6EB
  8
0
 10
87.499999999999986
 20
60.676781311628361
 30
0.0
 11
92.731778855654355
 21
60.450808765017378
 31
0.0
  0
LINE
  5
6EC
  8
0
 10
92.731778855654355
 20
60.450808765017378
 30
0.0
 11
97.924589316289413
 21
59.774574259678992
 31
0.0
  0
LINE
  5
6ED
  8
0
 10
97.924589316289413
 20
59.774574259678992
 30
0.0
 11
103.0397532391798
 21
58.653114662433502
 31
0.0
  0
LINE
  5
6EE
  8
0
 10
103.0397532391798
 20
58.653114662433502
 30
0.0
 11
108.0088373862128
 21
57.104238068215871
 31
0.0
  0
LINE
  5
6EF
  8
0
 10
108.0088373862128
 20
57.104238068215871
 30
0.0
 11
113.6746343338344
 21
54.73755361120002
 31
0.0
  0
LINE
  5
6F0
  8
0
 10
113.6746343338344
 20
54.73755361120002
 30
0.0
 11
119.04580189650061
 21
51.828309258123333
 31
0.0
  0
LINE
  5
6F1
  8
0
 10
119.04580189650061
 20
51.828309258123333
 30
0.0
 11
124.09722658588009
 21
48.393741992851609
 31
0.0
  0
LINE
  5
6F2
  8
0
 10
124.09722658588009
 20
48.393741992851609
 30
0.0
 11
128.7540288346141
 21
44.488521503365881
 31
0.0
  0
LINE
  5
6F3
  8
0
 10
128.7540288346141
 20
44.488521503365881
 30
0.0
 11
133.59350735010429
 21
39.44991811416137
 31
0.0
  0
LINE
  5
6F4
  8
0
 10
133.59350735010429
 20
39.44991811416137
 30
0.0
 11
137.8057773719311
 21
33.915132640959328
 31
0.0
  0
LINE
  5
6F5
  8
0
 10
137.8057773719311
 20
33.915132640959328
 30
0.0
 11
141.3442560639788
 21
27.95589381891245
 31
0.0
  0
LINE
  5
6F6
  8
0
 10
141.3442560639788
 20
27.95589381891245
 30
0.0
 11
144.4404741896038
 21
20.938568369708829
 31
0.0
  0
LINE
  5
6F7
  8
0
 10
144.4404741896038
 20
20.938568369708829
 30
0.0
 11
146.54157384547131
 21
13.95988069704935
 31
0.0
  0
LINE
  5
6F8
  8
0
 10
146.54157384547131
 20
13.95988069704935
 30
0.0
 11
147.76723943075999
 21
6.9801628171269288
 31
0.0
  0
LINE
  5
6F9
  8
0
 10
147.76723943075999
 20
6.9801628171269288
 30
0.0
 11
148.17031504349441
 21
0.0000000000000018
 31
0.0
  0
LINE
  5
6FA
  8
0
 10
148.17031504349441
 20
0.0000000000000018
 30
0.0
 11
147.76723943075999
 21
-6.9801628171269456
 31
0.0
  0
LINE
  5
6FB
  8
0
 10
147.76723943075999
 20
-6.9801628171269456
 30
0.0
 11
146.54157384547131
 21
-13.95988069704935
 31
0.0
  0
LINE
  5
6FC
  8
0
 10
146.54157384547131
 20
-13.95988069704935
 30
0.0
 11
144.4404741896038
 21
-20.93856836970884
 31
0.0
  0
LINE
  5
6FD
  8
0
 10
144.4404741896038
 20
-20.93856836970884
 30
0.0
 11
141.3442560639788
 21
-27.955893818912472
 31
0.0
  0
LINE
  5
6FE
  8
0
 10
141.3442560639788
 20
-27.955893818912472
 30
0.0
 11
137.8057773719311
 21
-33.915132640959307
 31
0.0
  0
LINE
  5
6FF
  8
0
 10
137.8057773719311
 20
-33.915132640959307
 30
0.0
 11
133.59350735010429
 21
-39.449918114161378
 31
0.0
  0
LINE
  5
700
  8
0
 10
133.59350735010429
 20
-39.449918114161378
 30
0.0
 11
128.79929706767689
 21
-44.441390666478441
 31
0.0
  0
LINE
  5
701
  8
0
 10
128.79929706767689
 20
-44.441390666478441
 30
0.0
 11
122.64678322712309
 21
-49.447947419250539
 31
0.0
  0
LINE
  5
702
  8
0
 10
122.64678322712309
 20
-49.447947419250539
 30
0.0
 11
115.9095912614239
 21
-53.604453892034201
 31
0.0
  0
LINE
  5
703
  8
0
 10
115.9095912614239
 20
-53.604453892034201
 30
0.0
 11
109.19747622776021
 21
-56.6559641363569
 31
0.0
  0
LINE
  5
704
  8
0
 10
109.19747622776021
 20
-56.6559641363569
 30
0.0
 11
102.1464359649121
 21
-58.87410857414411
 31
0.0
  0
LINE
  5
705
  8
0
 10
102.1464359649121
 20
-58.87410857414411
 30
0.0
 11
94.877978681468107
 21
-60.21830433888173
 31
0.0
  0
LINE
  5
706
  8
0
 10
94.877978681468107
 20
-60.21830433888173
 30
0.0
 11
87.5
 21
-60.668597699917051
 31
0.0
  0
LINE
  5
707
  8
0
 10
87.5
 20
-60.668597699917051
 30
0.0
 11
80.122021318531864
 21
-60.21830433888173
 31
0.0
  0
LINE
  5
708
  8
0
 10
80.122021318531864
 20
-60.21830433888173
 30
0.0
 11
72.8535640350878
 21
-58.874108574144103
 31
0.0
  0
LINE
  5
709
  8
0
 10
72.8535640350878
 20
-58.874108574144103
 30
0.0
 11
65.802523772239738
 21
-56.655964136356907
 31
0.0
  0
LINE
  5
70A
  8
0
 10
65.802523772239738
 20
-56.655964136356907
 30
0.0
 11
59.090408738576031
 21
-53.604453892034208
 31
0.0
  0
LINE
  5
70B
  8
0
 10
59.090408738576031
 20
-53.604453892034208
 30
0.0
 11
52.353216772876827
 21
-49.447947419250561
 31
0.0
  0
LINE
  5
70C
  8
0
 10
52.353216772876827
 20
-49.447947419250561
 30
0.0
 11
46.20070293232299
 21
-44.441390666478441
 31
0.0
  0
LINE
  5
70D
  8
0
 10
46.20070293232299
 20
-44.441390666478441
 30
0.0
 11
41.406492649895647
 21
-39.449918114161392
 31
0.0
  0
LINE
  5
70E
  8
0
 10
41.406492649895647
 20
-39.449918114161392
 30
0.0
 11
37.194222628068843
 21
-33.915132640959307
 31
0.0
  0
LINE
  5
70F
  8
0
 10
37.194222628068843
 20
-33.915132640959307
 30
0.0
 11
33.655743936021111
 21
-27.955893818912472
 31
0.0
  0
LINE
  5
710
  8
0
 10
33.655743936021111
 20
-27.955893818912472
 30
0.0
 11
30.559525810396192
 21
-20.938568369708872
 31
0.0
  0
LINE
  5
711
  8
0
 10
30.559525810396192
 20
-20.938568369708872
 30
0.0
 11
28.45842615452861
 21
-13.959880697049259
 31
0.0
  0
LINE
  5
712
  8
0
 10
28.45842615452861
 20
-13.959880697049259
 30
0.0
 11
27.232760569240021
 21
-6.9801628171269341
 31
0.0
  0
LINE
  5
713
  8
0
 10
27.232760569240021
 20
-6.9801628171269341
 30
0.0
 11
26.829684956505531
 21
-0.0000000000000053
 31
0.0
  0
LINE
  5
714
  8
0
 10
26.829684956505531
 20
-0.0000000000000053
 30
0.0
 11
27.232760569240021
 21
6.980162817126943
 31
0.0
  0
LINE
  5
715
  8
0
 10
27.232760569240021
 20
6.980162817126943
 30
0.0
 11
28.45842615452861
 21
13.95988069704924
 31
0.0
  0
LINE
  5
716
  8
0
 10
28.45842615452861
 20
13.95988069704924
 30
0.0
 11
30.559525810396192
 21
20.938568369708911
 31
0.0
  0
LINE
  5
717
  8
0
 10
30.559525810396192
 20
20.938568369708911
 30
0.0
 11
33.655743936021139
 21
27.955893818912489
 31
0.0
  0
LINE
  5
718
  8
0
 10
33.655743936021139
 20
27.955893818912489
 30
0.0
 11
37.194222628068843
 21
33.915132640959307
 31
0.0
  0
LINE
  5
719
  8
0
 10
37.194222628068843
 20
33.915132640959307
 30
0.0
 11
41.406492649895618
 21
39.449918114161349
 31
0.0
  0
LINE
  5
71A
  8
0
 10
41.406492649895618
 20
39.449918114161349
 30
0.0
 11
46.245971165385832
 21
44.488521503365867
 31
0.0
  0
LINE
  5
71B
  8
0
 10
46.245971165385832
 20
44.488521503365867
 30
0.0
 11
50.902773414119942
 21
48.393741992851673
 31
0.0
  0
LINE
  5
71C
  8
0
 10
50.902773414119942
 20
48.393741992851673
 30
0.0
 11
55.95419810349923
 21
51.828309258123291
 31
0.0
  0
LINE
  5
71D
  8
0
 10
55.95419810349923
 20
51.828309258123291
 30
0.0
 11
61.325365666165538
 21
54.73755361120002
 31
0.0
  0
LINE
  5
71E
  8
0
 10
61.325365666165538
 20
54.73755361120002
 30
0.0
 11
66.991162613787154
 21
57.104238068215857
 31
0.0
  0
LINE
  5
71F
  8
0
 10
66.991162613787154
 20
57.104238068215857
 30
0.0
 11
71.960246760820127
 21
58.653114662433502
 31
0.0
  0
LINE
  5
720
  8
0
 10
71.960246760820127
 20
58.653114662433502
 30
0.0
 11
77.075410683710544
 21
59.774574259678992
 31
0.0
  0
LINE
  5
721
  8
0
 10
77.075410683710544
 20
59.774574259678992
 30
0.0
 11
82.268221144345588
 21
60.450808765017378
 31
0.0
  0
LINE
  5
722
  8
0
 10
82.268221144345588
 20
60.450808765017378
 30
0.0
 11
87.499999999999986
 21
60.676781311628361
 31
0.0
  0
LINE
  5
723
  8
0
 10
87.499999999999986
 20
69.5
 30
0.0
 11
93.492549746508843
 21
69.241168011058392
 31
0.0
  0
LINE
  5
724
  8
0
 10
93.492549746508843
 20
69.241168011058392
 30
0.0
 11
99.440464570148038
 21
68.466599929082491
 31
0.0
  0
LINE
  5
725
  8
0
 10
99.440464570148038
 20
68.466599929082491
 30
0.0
 11
105.29944200692159
 21
67.182065048956559
 31
0.0
  0
LINE
  5
726
  8
0
 10
105.29944200692159
 20
67.182065048956559
 30
0.0
 11
111.0258420342938
 21
65.397131103569478
 31
0.0
  0
LINE
  5
727
  8
0
 10
111.0258420342938
 20
65.397131103569478
 30
0.0
 11
117.48224566463099
 21
62.700198922377531
 31
0.0
  0
LINE
  5
728
  8
0
 10
117.48224566463099
 20
62.700198922377531
 30
0.0
 11
123.6347543612508
 21
59.367748207693253
 31
0.0
  0
LINE
  5
729
  8
0
 10
123.6347543612508
 20
59.367748207693253
 30
0.0
 11
129.42100734426111
 21
55.433556112181748
 31
0.0
  0
LINE
  5
72A
  8
0
 10
129.42100734426111
 20
55.433556112181748
 30
0.0
 11
134.78235613928109
 21
50.937498936620173
 31
0.0
  0
LINE
  5
72B
  8
0
 10
134.78235613928109
 20
50.937498936620173
 30
0.0
 11
140.3016034073072
 21
45.191157073231018
 31
0.0
  0
LINE
  5
72C
  8
0
 10
140.3016034073072
 20
45.191157073231018
 30
0.0
 11
145.12689494886061
 21
38.850881309861968
 31
0.0
  0
LINE
  5
72D
  8
0
 10
145.12689494886061
 20
38.850881309861968
 30
0.0
 11
149.19481339626529
 21
32.0
 31
0.0
  0
LINE
  5
72E
  8
0
 10
149.19481339626529
 20
32.0
 30
0.0
 11
152.7246119191214
 21
24.000000000000011
 31
0.0
  0
LINE
  5
72F
  8
0
 10
152.7246119191214
 20
24.000000000000011
 30
0.0
 11
155.13320190557289
 21
16.0
 31
0.0
  0
LINE
  5
730
  8
0
 10
155.13320190557289
 20
16.0
 30
0.0
 11
156.53803299631301
 21
7.9999999999999982
 31
0.0
  0
LINE
  5
731
  8
0
 10
156.53803299631301
 20
7.9999999999999982
 30
0.0
 11
157.0
 21
-0.0000000000000018
 31
0.0
  0
LINE
  5
732
  8
0
 10
157.0
 20
-0.0000000000000018
 30
0.0
 11
156.53803299631301
 21
-8.0000000000000018
 31
0.0
  0
LINE
  5
733
  8
0
 10
156.53803299631301
 20
-8.0000000000000018
 30
0.0
 11
155.13320190557289
 21
-16.0
 31
0.0
  0
LINE
  5
734
  8
0
 10
155.13320190557289
 20
-16.0
 30
0.0
 11
152.7246119191214
 21
-24.000000000000011
 31
0.0
  0
LINE
  5
735
  8
0
 10
152.7246119191214
 20
-24.000000000000011
 30
0.0
 11
149.19481339626529
 21
-32.0
 31
0.0
  0
LINE
  5
736
  8
0
 10
149.19481339626529
 20
-32.0
 30
0.0
 11
145.12689494886061
 21
-38.850881309861968
 31
0.0
  0
LINE
  5
737
  8
0
 10
145.12689494886061
 20
-38.850881309861968
 30
0.0
 11
140.3016034073072
 21
-45.191157073231018
 31
0.0
  0
LINE
  5
738
  8
0
 10
140.3016034073072
 20
-45.191157073231018
 30
0.0
 11
134.78235613928109
 21
-50.937498936620173
 31
0.0
  0
LINE
  5
739
  8
0
 10
134.78235613928109
 20
-50.937498936620173
 30
0.0
 11
127.7645750344217
 21
-56.648159699123681
 31
0.0
  0
LINE
  5
73A
  8
0
 10
127.7645750344217
 20
-56.648159699123681
 30
0.0
 11
120.06440807601309
 21
-61.398773006134967
 31
0.0
  0
LINE
  5
73B
  8
0
 10
120.06440807601309
 20
-61.398773006134967
 30
0.0
 11
112.3559329702687
 21
-64.903255667011877
 31
0.0
  0
LINE
  5
73C
  8
0
 10
112.3559329702687
 20
-64.903255667011877
 30
0.0
 11
104.2784873584244
 21
-67.444290803322929
 31
0.0
  0
LINE
  5
73D
  8
0
 10
104.2784873584244
 20
-67.444290803322929
 30
0.0
 11
95.951975779930237
 21
-68.984158365638351
 31
0.0
  0
LINE
  5
73E
  8
0
 10
95.951975779930237
 20
-68.984158365638351
 30
0.0
 11
87.499999999999986
 21
-69.5
 31
0.0
  0
LINE
  5
73F
  8
0
 10
87.499999999999986
 20
-69.5
 30
0.0
 11
79.048024220069721
 21
-68.984158365638351
 31
0.0
  0
LINE
  5
740
  8
0
 10
79.048024220069721
 20
-68.984158365638351
 30
0.0
 11
70.721512641575515
 21
-67.444290803322929
 31
0.0
  0
LINE
  5
741
  8
0
 10
70.721512641575515
 20
-67.444290803322929
 30
0.0
 11
62.644067029731268
 21
-64.903255667011877
 31
0.0
  0
LINE
  5
742
  8
0
 10
62.644067029731268
 20
-64.903255667011877
 30
0.0
 11
54.935591923986813
 21
-61.398773006134967
 31
0.0
  0
LINE
  5
743
  8
0
 10
54.935591923986813
 20
-61.398773006134967
 30
0.0
 11
47.235424965578233
 21
-56.648159699123681
 31
0.0
  0
LINE
  5
744
  8
0
 10
47.235424965578233
 20
-56.648159699123681
 30
0.0
 11
40.217643860718823
 21
-50.937498936620173
 31
0.0
  0
LINE
  5
745
  8
0
 10
40.217643860718823
 20
-50.937498936620173
 30
0.0
 11
34.698396592692752
 21
-45.191157073231018
 31
0.0
  0
LINE
  5
746
  8
0
 10
34.698396592692752
 20
-45.191157073231018
 30
0.0
 11
29.873105051139358
 21
-38.850881309861968
 31
0.0
  0
LINE
  5
747
  8
0
 10
29.873105051139358
 20
-38.850881309861968
 30
0.0
 11
25.805186603734661
 21
-32.0
 31
0.0
  0
LINE
  5
748
  8
0
 10
25.805186603734661
 20
-32.0
 30
0.0
 11
22.275388080878539
 21
-24.000000000000011
 31
0.0
  0
LINE
  5
749
  8
0
 10
22.275388080878539
 20
-24.000000000000011
 30
0.0
 11
19.866798094427018
 21
-16.0
 31
0.0
  0
LINE
  5
74A
  8
0
 10
19.866798094427018
 20
-16.0
 30
0.0
 11
18.461967003687018
 21
-8.0000000000000018
 31
0.0
  0
LINE
  5
74B
  8
0
 10
18.461967003687018
 20
-8.0000000000000018
 30
0.0
 11
17.999999999999972
 21
-0.0000000000000018
 31
0.0
  0
LINE
  5
74C
  8
0
 10
17.999999999999972
 20
-0.0000000000000018
 30
0.0
 11
18.461967003687018
 21
7.9999999999999982
 31
0.0
  0
LINE
  5
74D
  8
0
 10
18.461967003687018
 20
7.9999999999999982
 30
0.0
 11
19.866798094427018
 21
16.0
 31
0.0
  0
LINE
  5
74E
  8
0
 10
19.866798094427018
 20
16.0
 30
0.0
 11
22.275388080878539
 21
24.000000000000011
 31
0.0
  0
LINE
  5
74F
  8
0
 10
22.275388080878539
 20
24.000000000000011
 30
0.0
 11
25.805186603734661
 21
32.0
 31
0.0
  0
LINE
  5
750
  8
0
 10
25.805186603734661
 20
32.0
 30
0.0
 11
29.873105051139358
 21
38.850881309861968
 31
0.0
  0
LINE
  5
751
  8
0
 10
29.873105051139358
 20
38.850881309861968
 30
0.0
 11
34.698396592692752
 21
45.191157073231018
 31
0.0
  0
LINE
  5
752
  8
0
 10
34.698396592692752
 20
45.191157073231018
 30
0.0
 11
40.217643860718823
 21
50.937498936620173
 31
0.0
  0
LINE
  5
753
  8
0
 10
40.217643860718823
 20
50.937498936620173
 30
0.0
 11
45.578992655738823
 21
55.433556112181748
 31
0.0
  0
LINE
  5
754
  8
0
 10
45.578992655738823
 20
55.433556112181748
 30
0.0
 11
51.365245638749172
 21
59.367748207693253
 31
0.0
  0
LINE
  5
755
  8
0
 10
51.365245638749172
 20
59.367748207693253
 30
0.0
 11
57.517754335368892
 21
62.700198922377531
 31
0.0
  0
LINE
  5
756
  8
0
 10
57.517754335368892
 20
62.700198922377531
 30
0.0
 11
63.974157965706183
 21
65.397131103569478
 31
0.0
  0
LINE
  5
757
  8
0
 10
63.974157965706183
 20
65.397131103569478
 30
0.0
 11
69.70055799307832
 21
67.182065048956559
 31
0.0
  0
LINE
  5
758
  8
0
 10
69.70055799307832
 20
67.182065048956559
 30
0.0
 11
75.559535429851934
 21
68.466599929082491
 31
0.0
  0
LINE
  5
759
  8
0
 10
75.559535429851934
 20
68.466599929082491
 30
0.0
 11
81.507450253491129
 21
69.241168011058392
 31
0.0
  0
LINE
  5
75A
  8
0
 10
81.507450253491129
 20
69.241168011058392
 30
0.0
 11
87.499999999999986
 21
69.5
 31
0.0
  0
LINE
  5
75B
  8
0
 10
87.499999999999986
 20
69.5
 30
0.0
 11
87.499999999999986
 21
69.5
 31
0.0
  0
LINE
  5
769
  8
0
 10
228.99999999999989
 20
81.500000000000014
 30
0.0
 11
382.49999999999682
 21
81.500000000000014
 31
0.0
  0
LINE
  5
76A
  8
0
 10
228.99999999999989
 20
71.999999999999986
 30
0.0
 11
372.99999999999682
 21
72.0
 31
0.0
  0
LINE
  5
76B
  8
0
 10
228.99999999999989
 20
64.0
 30
0.0
 11
364.99999999999682
 21
64.000000000000014
 31
0.0
  0
LINE
  5
76C
  8
0
 10
228.99999999999989
 20
55.999999999999957
 30
0.0
 11
356.9999999999967
 21
55.999999999999957
 31
0.0
  0
LINE
  5
76D
  8
0
 10
228.99999999999989
 20
47.999999999999979
 30
0.0
 11
348.9999999999967
 21
47.999999999999979
 31
0.0
  0
LINE
  5
76E
  8
0
 10
228.99999999999989
 20
39.999999999999943
 30
0.0
 11
340.9999999999967
 21
39.999999999999943
 31
0.0
  0
LINE
  5
76F
  8
0
 10
228.99999999999989
 20
31.99999999999995
 30
0.0
 11
332.9999999999967
 21
31.99999999999995
 31
0.0
  0
LINE
  5
770
  8
0
 10
228.99999999999989
 20
23.999999999999911
 30
0.0
 11
324.9999999999967
 21
23.999999999999911
 31
0.0
  0
LINE
  5
771
  8
0
 10
228.99999999999989
 20
15.99999999999992
 30
0.0
 11
316.9999999999967
 21
15.99999999999992
 31
0.0
  0
LINE
  5
772
  8
0
 10
228.99999999999989
 20
7.9999999999998774
 30
0.0
 11
308.9999999999967
 21
7.9999999999998801
 31
0.0
  0
LINE
  5
773
  8
0
 10
228.99999999999989
 20
-0.0000000000001084
 30
0.0
 11
300.9999999999967
 21
-0.0000000000001084
 31
0.0
  0
LINE
  5
774
  8
0
 10
228.99999999999989
 20
-8.0000000000001492
 30
0.0
 11
292.99999999999659
 21
-8.0000000000001492
 31
0.0
  0
LINE
  5
775
  8
0
 10
228.99999999999989
 20
-16.000000000000131
 30
0.0
 11
284.9999999999967
 21
-16.000000000000131
 31
0.0
  0
LINE
  5
776
  8
0
 10
228.99999999999989
 20
-24.000000000000181
 30
0.0
 11
276.99999999999659
 21
-24.000000000000181
 31
0.0
  0
LINE
  5
777
  8
0
 10
228.99999999999989
 20
-32.000000000000171
 30
0.0
 11
268.99999999999659
 21
-32.000000000000171
 31
0.0
  0
LINE
  5
778
  8
0
 10
228.99999999999989
 20
-40.000000000000199
 30
0.0
 11
260.99999999999659
 21
-40.000000000000199
 31
0.0
  0
LINE
  5
779
  8
0
 10
228.99999999999989
 20
-48.000000000000192
 30
0.0
 11
252.99999999999659
 21
-48.000000000000192
 31
0.0
  0
LINE
  5
77A
  8
0
 10
228.99999999999989
 20
-56.000000000000227
 30
0.0
 11
244.9999999999965
 21
-56.000000000000227
 31
0.0
  0
LINE
  5
77B
  8
0
 10
228.99999999999989
 20
-64.000000000000227
 30
0.0
 11
236.9999999999965
 21
-64.000000000000227
 31
0.0
  0
LINE
  5
77D
  8
0
 10
228.99999999999989
 20
-72.000000000000014
 30
0.0
 11
236.9999999999965
 21
-64.000000000000227
 31
0.0
  0
LINE
  5
77E
  8
0
 10
236.9999999999965
 20
-64.000000000000227
 30
0.0
 11
244.9999999999965
 21
-56.000000000000227
 31
0.0
  0
LINE
  5
77F
  8
0
 10
244.9999999999965
 20
-56.000000000000227
 30
0.0
 11
252.99999999999659
 21
-48.000000000000192
 31
0.0
  0
LINE
  5
780
  8
0
 10
252.99999999999659
 20
-48.000000000000192
 30
0.0
 11
260.99999999999659
 21
-40.000000000000199
 31
0.0
  0
LINE
  5
781
  8
0
 10
260.99999999999659
 20
-40.000000000000199
 30
0.0
 11
268.99999999999659
 21
-32.000000000000171
 31
0.0
  0
LINE
  5
782
  8
0
 10
268.99999999999659
 20
-32.000000000000171
 30
0.0
 11
276.99999999999659
 21
-24.000000000000181
 31
0.0
  0
LINE
  5
783
  8
0
 10
276.99999999999659
 20
-24.000000000000181
 30
0.0
 11
284.9999999999967
 21
-16.000000000000131
 31
0.0
  0
LINE
  5
784
  8
0
 10
284.9999999999967
 20
-16.000000000000131
 30
0.0
 11
292.99999999999659
 21
-8.0000000000001492
 31
0.0
  0
LINE
  5
785
  8
0
 10
292.99999999999659
 20
-8.0000000000001492
 30
0.0
 11
300.9999999999967
 21
-0.0000000000001084
 31
0.0
  0
LINE
  5
786
  8
0
 10
300.9999999999967
 20
-0.0000000000001084
 30
0.0
 11
308.9999999999967
 21
7.9999999999998801
 31
0.0
  0
LINE
  5
787
  8
0
 10
308.9999999999967
 20
7.9999999999998801
 30
0.0
 11
316.9999999999967
 21
15.99999999999992
 31
0.0
  0
LINE
  5
788
  8
0
 10
316.9999999999967
 20
15.99999999999992
 30
0.0
 11
324.9999999999967
 21
23.999999999999911
 31
0.0
  0
LINE
  5
789
  8
0
 10
324.9999999999967
 20
23.999999999999911
 30
0.0
 11
332.9999999999967
 21
31.99999999999995
 31
0.0
  0
LINE
  5
78A
  8
0
 10
332.9999999999967
 20
31.99999999999995
 30
0.0
 11
340.9999999999967
 21
39.999999999999943
 31
0.0
  0
LINE
  5
78B
  8
0
 10
340.9999999999967
 20
39.999999999999943
 30
0.0
 11
348.9999999999967
 21
47.999999999999979
 31
0.0
  0
LINE
  5
78C
  8
0
 10
348.9999999999967
 20
47.999999999999979
 30
0.0
 11
356.9999999999967
 21
55.999999999999957
 31
0.0
  0
LINE
  5
78D
  8
0
 10
356.9999999999967
 20
55.999999999999957
 30
0.0
 11
364.99999999999682
 21
64.000000000000014
 31
0.0
  0
LINE
  5
78E
  8
0
 10
364.99999999999682
 20
64.000000000000014
 30
0.0
 11
372.99999999999682
 21
72.0
 31
0.0
  0
LINE
  5
78F
  8
0
 10
372.99999999999682
 20
72.0
 30
0.0
 11
382.49999999999682
 21
81.500000000000014
 31
0.0
  0
LINE
  5
793
  8
0
 10
228.99999999999989
 20
549.5
 30
0.0
 11
-229.0
 21
549.5
 31
0.0
  0
LINE
  5
794
  8
0
 10
850.49999999999682
 20
549.50000000000023
 30
0.0
 11
228.99999999999989
 21
549.5
 31
0.0
  0
LINE
  5
796
  8
0
 10
838.4999999999967
 20
537.50000000000034
 30
0.0
 11
-838.49999999999284
 21
537.49999999999977
 31
0.0
  0
LINE
  5
797
  8
0
 10
826.49999999999659
 20
525.50000000000034
 30
0.0
 11
-826.4999999999925
 21
525.49999999999955
 31
0.0
  0
LINE
  5
798
  8
0
 10
814.49999999999648
 20
513.50000000000023
 30
0.0
 11
-814.49999999999295
 21
513.49999999999977
 31
0.0
  0
LINE
  5
799
  8
0
 10
790.49999999999625
 20
489.50000000000028
 30
0.0
 11
-790.49999999999227
 21
489.4999999999996
 31
0.0
  0
LINE
  5
79A
  8
0
 10
778.49999999999625
 20
477.50000000000023
 30
0.0
 11
-778.49999999999272
 21
477.49999999999977
 31
0.0
  0
LINE
  5
79B
  8
0
 10
802.49999999999636
 20
501.50000000000028
 30
0.0
 11
-802.49999999999295
 21
501.4999999999996
 31
0.0
  0
LINE
  5
79C
  8
0
 10
754.49999999999613
 20
453.50000000000023
 30
0.0
 11
-754.49999999999216
 21
453.49999999999972
 31
0.0
  0
LINE
  5
79D
  8
0
 10
742.49999999999613
 20
441.50000000000011
 30
0.0
 11
-742.49999999999261
 21
441.49999999999989
 31
0.0
  0
LINE
  5
79E
  8
0
 10
766.49999999999625
 20
465.50000000000023
 30
0.0
 11
-766.49999999999272
 21
465.49999999999972
 31
0.0
  0
LINE
  5
79F
  8
0
 10
718.49999999999591
 20
417.50000000000023
 30
0.0
 11
-718.49999999999227
 21
417.49999999999972
 31
0.0
  0
LINE
  5
7A0
  8
0
 10
706.49999999999591
 20
405.50000000000011
 30
0.0
 11
-706.49999999999238
 21
405.49999999999977
 31
0.0
  0
LINE
  5
7A1
  8
0
 10
730.49999999999602
 20
429.50000000000023
 30
0.0
 11
-730.4999999999925
 21
429.49999999999977
 31
0.0
  0
LINE
  5
7A2
  8
0
 10
682.49999999999557
 20
381.50000000000028
 30
0.0
 11
-682.49999999999193
 21
381.49999999999972
 31
0.0
  0
LINE
  5
7A3
  8
0
 10
670.49999999999557
 20
369.50000000000023
 30
0.0
 11
-670.49999999999204
 21
369.49999999999989
 31
0.0
  0
LINE
  5
7A4
  8
0
 10
694.49999999999568
 20
393.50000000000028
 30
0.0
 11
-694.49999999999227
 21
393.49999999999977
 31
0.0
  0
LINE
  5
7A5
  8
0
 10
646.49999999999545
 20
345.50000000000028
 30
0.0
 11
-646.49999999999181
 21
345.49999999999977
 31
0.0
  0
LINE
  5
7A6
  8
0
 10
634.49999999999545
 20
333.50000000000023
 30
0.0
 11
-634.49999999999181
 21
333.49999999999977
 31
0.0
  0
LINE
  5
7A7
  8
0
 10
658.49999999999545
 20
357.50000000000028
 30
0.0
 11
-658.4999999999917
 21
357.49999999999977
 31
0.0
  0
LINE
  5
7A8
  8
0
 10
610.49999999999523
 20
309.50000000000028
 30
0.0
 11
-610.49999999999159
 21
309.49999999999977
 31
0.0
  0
LINE
  5
7A9
  8
0
 10
598.49999999999523
 20
297.50000000000023
 30
0.0
 11
-598.49999999999147
 21
297.5
 31
0.0
  0
LINE
  5
7AA
  8
0
 10
622.49999999999534
 20
321.50000000000028
 30
0.0
 11
-622.49999999999147
 21
321.49999999999977
 31
0.0
  0
LINE
  5
7AB
  8
0
 10
574.499999999995
 20
273.50000000000028
 30
0.0
 11
-574.49999999999125
 21
273.49999999999977
 31
0.0
  0
LINE
  5
7AC
  8
0
 10
562.499999999995
 20
261.50000000000011
 30
0.0
 11
-562.49999999999136
 21
261.49999999999989
 31
0.0
  0
LINE
  5
7AD
  8
0
 10
586.49999999999511
 20
285.50000000000028
 30
0.0
 11
-586.49999999999136
 21
285.49999999999989
 31
0.0
  0
LINE
  5
7AE
  8
0
 10
538.49999999999466
 20
237.50000000000031
 30
0.0
 11
-538.49999999999102
 21
237.49999999999989
 31
0.0
  0
LINE
  5
7AF
  8
0
 10
526.49999999999477
 20
225.5000000000002
 30
0.0
 11
-526.49999999999125
 21
225.5
 31
0.0
  0
LINE
  5
7B0
  8
0
 10
550.49999999999488
 20
249.50000000000031
 30
0.0
 11
-550.49999999999136
 21
249.49999999999989
 31
0.0
  0
LINE
  5
7B1
  8
0
 10
502.49999999999449
 20
201.50000000000031
 30
0.0
 11
-502.49999999999068
 21
201.49999999999989
 31
0.0
  0
LINE
  5
7B2
  8
0
 10
490.49999999999449
 20
189.5000000000002
 30
0.0
 11
-490.49999999999102
 21
189.5
 31
0.0
  0
LINE
  5
7B3
  8
0
 10
514.49999999999466
 20
213.50000000000031
 30
0.0
 11
-514.49999999999125
 21
213.49999999999989
 31
0.0
  0
LINE
  5
7B4
  8
0
 10
466.49999999999432
 20
165.50000000000031
 30
0.0
 11
-466.4999999999938
 21
165.49999999999989
 31
0.0
  0
LINE
  5
7B5
  8
0
 10
454.49999999999432
 20
153.50000000000011
 30
0.0
 11
-454.4999999999942
 21
153.49999999999989
 31
0.0
  0
LINE
  5
7B6
  8
0
 10
478.49999999999437
 20
177.50000000000031
 30
0.0
 11
-478.49999999999392
 21
177.49999999999989
 31
0.0
  0
LINE
  5
7B7
  8
0
 10
430.49999999999409
 20
129.50000000000031
 30
0.0
 11
-430.49999999999369
 21
129.49999999999989
 31
0.0
  0
LINE
  5
7B8
  8
0
 10
418.49999999999397
 20
117.5000000000002
 30
0.0
 11
-418.4999999999938
 21
117.5
 31
0.0
  0
LINE
  5
7B9
  8
0
 10
442.4999999999942
 20
141.50000000000031
 30
0.0
 11
-442.4999999999938
 21
141.5
 31
0.0
  0
LINE
  5
7BA
  8
0
 10
394.4999999999938
 20
93.500000000000284
 30
0.0
 11
-394.49999999999352
 21
93.499999999999986
 31
0.0
  0
LINE
  5
7BC
  8
0
 10
406.49999999999392
 20
105.5000000000003
 30
0.0
 11
-406.49999999999358
 21
105.5
 31
0.0
  0
LINE
  5
7BD
  8
0
 10
382.49999999999682
 20
81.500000000000014
 30
0.0
 11
394.4999999999938
 21
93.500000000000284
 31
0.0
  0
LINE
  5
7BE
  8
0
 10
394.4999999999938
 20
93.500000000000284
 30
0.0
 11
406.49999999999392
 21
105.5000000000003
 31
0.0
  0
LINE
  5
7BF
  8
0
 10
406.49999999999392
 20
105.5000000000003
 30
0.0
 11
418.49999999999397
 21
117.5000000000002
 31
0.0
  0
LINE
  5
7C0
  8
0
 10
418.49999999999397
 20
117.5000000000002
 30
0.0
 11
430.49999999999409
 21
129.50000000000031
 31
0.0
  0
LINE
  5
7C1
  8
0
 10
430.49999999999409
 20
129.50000000000031
 30
0.0
 11
442.4999999999942
 21
141.50000000000031
 31
0.0
  0
LINE
  5
7C2
  8
0
 10
442.4999999999942
 20
141.50000000000031
 30
0.0
 11
454.49999999999432
 21
153.50000000000011
 31
0.0
  0
LINE
  5
7C3
  8
0
 10
454.49999999999432
 20
153.50000000000011
 30
0.0
 11
466.49999999999432
 21
165.50000000000031
 31
0.0
  0
LINE
  5
7C4
  8
0
 10
466.49999999999432
 20
165.50000000000031
 30
0.0
 11
478.49999999999437
 21
177.50000000000031
 31
0.0
  0
LINE
  5
7C5
  8
0
 10
478.49999999999437
 20
177.50000000000031
 30
0.0
 11
490.49999999999147
 21
189.50000000000051
 31
0.0
  0
LINE
  5
7C6
  8
0
 10
490.49999999999147
 20
189.50000000000051
 30
0.0
 11
502.49999999999147
 21
201.5000000000006
 31
0.0
  0
LINE
  5
7C7
  8
0
 10
502.49999999999147
 20
201.5000000000006
 30
0.0
 11
514.4999999999917
 21
213.50000000000051
 31
0.0
  0
LINE
  5
7C8
  8
0
 10
514.4999999999917
 20
213.50000000000051
 30
0.0
 11
526.4999999999917
 21
225.5000000000006
 31
0.0
  0
LINE
  5
7C9
  8
0
 10
526.4999999999917
 20
225.5000000000006
 30
0.0
 11
538.49999999999181
 21
237.5000000000006
 31
0.0
  0
LINE
  5
7CA
  8
0
 10
538.49999999999181
 20
237.5000000000006
 30
0.0
 11
550.49999999999204
 21
249.5000000000004
 31
0.0
  0
LINE
  5
7CB
  8
0
 10
550.49999999999204
 20
249.5000000000004
 30
0.0
 11
562.49999999999204
 21
261.50000000000051
 31
0.0
  0
LINE
  5
7CC
  8
0
 10
562.49999999999204
 20
261.50000000000051
 30
0.0
 11
574.49999999999204
 21
273.50000000000063
 31
0.0
  0
LINE
  5
7CD
  8
0
 10
574.499999999995
 20
273.50000000000028
 30
0.0
 11
586.49999999999204
 21
285.50000000000063
 31
0.0
  0
LINE
  5
7CE
  8
0
 10
586.49999999999204
 20
285.50000000000063
 30
0.0
 11
598.49999999999227
 21
297.50000000000063
 31
0.0
  0
LINE
  5
7CF
  8
0
 10
598.49999999999227
 20
297.50000000000063
 30
0.0
 11
610.49999999999227
 21
309.50000000000051
 31
0.0
  0
LINE
  5
7D0
  8
0
 10
610.49999999999227
 20
309.50000000000051
 30
0.0
 11
622.49999999999227
 21
321.50000000000063
 31
0.0
  0
LINE
  5
7D1
  8
0
 10
622.49999999999227
 20
321.50000000000063
 30
0.0
 11
634.4999999999925
 21
333.50000000000063
 31
0.0
  0
LINE
  5
7D2
  8
0
 10
634.4999999999925
 20
333.50000000000063
 30
0.0
 11
646.4999999999925
 21
345.5000000000004
 31
0.0
  0
LINE
  5
7D3
  8
0
 10
646.4999999999925
 20
345.5000000000004
 30
0.0
 11
658.4999999999925
 21
357.50000000000063
 31
0.0
  0
LINE
  5
7D4
  8
0
 10
658.4999999999925
 20
357.50000000000063
 30
0.0
 11
670.49999999999272
 21
369.50000000000063
 31
0.0
  0
LINE
  5
7D5
  8
0
 10
670.49999999999557
 20
369.50000000000023
 30
0.0
 11
682.49999999999272
 21
381.50000000000051
 31
0.0
  0
LINE
  5
7D6
  8
0
 10
682.49999999999272
 20
381.50000000000051
 30
0.0
 11
694.49999999999295
 21
393.5000000000004
 31
0.0
  0
LINE
  5
7D7
  8
0
 10
694.49999999999295
 20
393.5000000000004
 30
0.0
 11
706.49999999999295
 21
405.50000000000028
 31
0.0
  0
LINE
  5
7D8
  8
0
 10
706.49999999999295
 20
405.50000000000028
 30
0.0
 11
718.49999999999295
 21
417.5000000000004
 31
0.0
  0
LINE
  5
7D9
  8
0
 10
718.49999999999295
 20
417.5000000000004
 30
0.0
 11
730.49999999999318
 21
429.5000000000004
 31
0.0
  0
LINE
  5
7DA
  8
0
 10
730.49999999999318
 20
429.5000000000004
 30
0.0
 11
742.49999999999318
 21
441.50000000000028
 31
0.0
  0
LINE
  5
7DB
  8
0
 10
742.49999999999318
 20
441.50000000000028
 30
0.0
 11
754.49999999999307
 21
453.5000000000004
 31
0.0
  0
LINE
  5
7DC
  8
0
 10
754.49999999999307
 20
453.5000000000004
 30
0.0
 11
766.49999999999341
 21
465.5000000000004
 31
0.0
  0
LINE
  5
7DD
  8
0
 10
766.49999999999625
 20
465.50000000000023
 30
0.0
 11
778.49999999999341
 21
477.50000000000051
 31
0.0
  0
LINE
  5
7DE
  8
0
 10
778.49999999999341
 20
477.50000000000051
 30
0.0
 11
790.49999999999341
 21
489.50000000000051
 31
0.0
  0
LINE
  5
7DF
  8
0
 10
790.49999999999341
 20
489.50000000000051
 30
0.0
 11
802.49999999999363
 21
501.50000000000051
 31
0.0
  0
LINE
  5
7E0
  8
0
 10
802.49999999999363
 20
501.50000000000051
 30
0.0
 11
814.49999999999352
 21
513.50000000000057
 31
0.0
  0
LINE
  5
7E1
  8
0
 10
814.49999999999352
 20
513.50000000000057
 30
0.0
 11
826.49999999999363
 21
525.50000000000057
 31
0.0
  0
LINE
  5
7E2
  8
0
 10
826.49999999999363
 20
525.50000000000057
 30
0.0
 11
838.49999999999386
 21
537.50000000000057
 31
0.0
  0
LINE
  5
7E3
  8
0
 10
838.49999999999386
 20
537.50000000000057
 30
0.0
 11
850.49999999999375
 21
549.50000000000045
 31
0.0
  0
LINE
  5
7E5
  8
0
 10
-228.99999999999989
 20
81.500000000000014
 30
0.0
 11
-382.49999999999682
 21
81.500000000000014
 31
0.0
  0
LINE
  5
7E6
  8
0
 10
-228.9999999999998
 20
71.999999999999986
 30
0.0
 11
-372.99999999999682
 21
72.0
 31
0.0
  0
LINE
  5
7E7
  8
0
 10
-228.9999999999998
 20
64.0
 30
0.0
 11
-364.9999999999967
 21
64.000000000000014
 31
0.0
  0
LINE
  5
7E8
  8
0
 10
-228.9999999999998
 20
55.999999999999957
 30
0.0
 11
-356.9999999999967
 21
55.999999999999957
 31
0.0
  0
LINE
  5
7E9
  8
0
 10
-228.9999999999998
 20
47.999999999999979
 30
0.0
 11
-348.9999999999967
 21
47.999999999999979
 31
0.0
  0
LINE
  5
7EA
  8
0
 10
-228.9999999999998
 20
39.999999999999943
 30
0.0
 11
-340.99999999999659
 21
39.999999999999943
 31
0.0
  0
LINE
  5
7EB
  8
0
 10
-228.9999999999998
 20
31.99999999999995
 30
0.0
 11
-332.99999999999659
 21
31.99999999999995
 31
0.0
  0
LINE
  5
7EC
  8
0
 10
-228.9999999999998
 20
23.999999999999911
 30
0.0
 11
-324.9999999999967
 21
23.999999999999911
 31
0.0
  0
LINE
  5
7ED
  8
0
 10
-228.9999999999998
 20
15.99999999999992
 30
0.0
 11
-316.9999999999967
 21
15.99999999999992
 31
0.0
  0
LINE
  5
7EE
  8
0
 10
-228.9999999999998
 20
7.9999999999998774
 30
0.0
 11
-308.99999999999659
 21
7.9999999999998801
 31
0.0
  0
LINE
  5
7EF
  8
0
 10
-228.9999999999998
 20
-0.0000000000001084
 30
0.0
 11
-300.99999999999659
 21
-0.0000000000001084
 31
0.0
  0
LINE
  5
7F0
  8
0
 10
-228.9999999999998
 20
-8.0000000000001492
 30
0.0
 11
-292.99999999999659
 21
-8.0000000000001492
 31
0.0
  0
LINE
  5
7F1
  8
0
 10
-228.9999999999998
 20
-16.000000000000131
 30
0.0
 11
-284.99999999999659
 21
-16.000000000000131
 31
0.0
  0
LINE
  5
7F2
  8
0
 10
-228.9999999999998
 20
-24.000000000000181
 30
0.0
 11
-276.99999999999659
 21
-24.000000000000181
 31
0.0
  0
LINE
  5
7F3
  8
0
 10
-228.9999999999998
 20
-32.000000000000171
 30
0.0
 11
-268.99999999999659
 21
-32.000000000000171
 31
0.0
  0
LINE
  5
7F4
  8
0
 10
-228.9999999999998
 20
-40.000000000000199
 30
0.0
 11
-260.99999999999659
 21
-40.000000000000199
 31
0.0
  0
LINE
  5
7F5
  8
0
 10
-228.9999999999998
 20
-48.000000000000192
 30
0.0
 11
-252.99999999999659
 21
-48.000000000000192
 31
0.0
  0
LINE
  5
7F6
  8
0
 10
-228.9999999999998
 20
-56.000000000000227
 30
0.0
 11
-244.9999999999965
 21
-56.000000000000227
 31
0.0
  0
LINE
  5
7F7
  8
0
 10
-228.9999999999998
 20
-64.000000000000227
 30
0.0
 11
-236.9999999999965
 21
-64.000000000000227
 31
0.0
  0
LINE
  5
7F8
  8
0
 10
-228.9999999999998
 20
-72.000000000000014
 30
0.0
 11
-236.9999999999965
 21
-64.000000000000227
 31
0.0
  0
LINE
  5
7F9
  8
0
 10
-236.9999999999965
 20
-64.000000000000227
 30
0.0
 11
-244.9999999999965
 21
-56.000000000000227
 31
0.0
  0
LINE
  5
7FA
  8
0
 10
-244.9999999999965
 20
-56.000000000000227
 30
0.0
 11
-252.99999999999659
 21
-48.000000000000192
 31
0.0
  0
LINE
  5
7FB
  8
0
 10
-252.99999999999659
 20
-48.000000000000192
 30
0.0
 11
-260.99999999999659
 21
-40.000000000000199
 31
0.0
  0
LINE
  5
7FC
  8
0
 10
-260.99999999999659
 20
-40.000000000000199
 30
0.0
 11
-268.99999999999659
 21
-32.000000000000171
 31
0.0
  0
LINE
  5
7FD
  8
0
 10
-268.99999999999659
 20
-32.000000000000171
 30
0.0
 11
-276.99999999999659
 21
-24.000000000000181
 31
0.0
  0
LINE
  5
7FE
  8
0
 10
-276.99999999999659
 20
-24.000000000000181
 30
0.0
 11
-284.99999999999659
 21
-16.000000000000131
 31
0.0
  0
LINE
  5
7FF
  8
0
 10
-284.99999999999659
 20
-16.000000000000131
 30
0.0
 11
-292.99999999999659
 21
-8.0000000000001492
 31
0.0
  0
LINE
  5
800
  8
0
 10
-292.99999999999659
 20
-8.0000000000001492
 30
0.0
 11
-300.99999999999659
 21
-0.0000000000001084
 31
0.0
  0
LINE
  5
801
  8
0
 10
-300.99999999999659
 20
-0.0000000000001084
 30
0.0
 11
-308.99999999999659
 21
7.9999999999998801
 31
0.0
  0
LINE
  5
802
  8
0
 10
-308.99999999999659
 20
7.9999999999998801
 30
0.0
 11
-316.9999999999967
 21
15.99999999999992
 31
0.0
  0
LINE
  5
803
  8
0
 10
-316.9999999999967
 20
15.99999999999992
 30
0.0
 11
-324.9999999999967
 21
23.999999999999911
 31
0.0
  0
LINE
  5
804
  8
0
 10
-324.9999999999967
 20
23.999999999999911
 30
0.0
 11
-332.99999999999659
 21
31.99999999999995
 31
0.0
  0
LINE
  5
805
  8
0
 10
-332.99999999999659
 20
31.99999999999995
 30
0.0
 11
-340.99999999999659
 21
39.999999999999943
 31
0.0
  0
LINE
  5
806
  8
0
 10
-340.99999999999659
 20
39.999999999999943
 30
0.0
 11
-348.9999999999967
 21
47.999999999999979
 31
0.0
  0
LINE
  5
807
  8
0
 10
-348.9999999999967
 20
47.999999999999979
 30
0.0
 11
-356.9999999999967
 21
55.999999999999957
 31
0.0
  0
LINE
  5
808
  8
0
 10
-356.9999999999967
 20
55.999999999999957
 30
0.0
 11
-364.9999999999967
 21
64.000000000000014
 31
0.0
  0
LINE
  5
809
  8
0
 10
-364.9999999999967
 20
64.000000000000014
 30
0.0
 11
-372.99999999999682
 21
72.0
 31
0.0
  0
LINE
  5
80A
  8
0
 10
-372.99999999999682
 20
72.0
 30
0.0
 11
-382.49999999999682
 21
81.500000000000014
 31
0.0
  0
LINE
  5
80B
  8
0
 10
-850.49999999999682
 20
549.50000000000023
 30
0.0
 11
-228.9999999999998
 21
549.5
 31
0.0
  0
LINE
  5
80C
  8
0
 10
-382.49999999999682
 20
81.500000000000014
 30
0.0
 11
-394.4999999999938
 21
93.500000000000284
 31
0.0
  0
LINE
  5
80D
  8
0
 10
-394.4999999999938
 20
93.500000000000284
 30
0.0
 11
-406.49999999999392
 21
105.5000000000003
 31
0.0
  0
LINE
  5
80E
  8
0
 10
-406.49999999999392
 20
105.5000000000003
 30
0.0
 11
-418.49999999999397
 21
117.5000000000002
 31
0.0
  0
LINE
  5
80F
  8
0
 10
-418.49999999999397
 20
117.5000000000002
 30
0.0
 11
-430.49999999999409
 21
129.50000000000031
 31
0.0
  0
LINE
  5
810
  8
0
 10
-430.49999999999409
 20
129.50000000000031
 30
0.0
 11
-442.4999999999942
 21
141.50000000000031
 31
0.0
  0
LINE
  5
811
  8
0
 10
-442.4999999999942
 20
141.50000000000031
 30
0.0
 11
-454.49999999999432
 21
153.50000000000011
 31
0.0
  0
LINE
  5
812
  8
0
 10
-454.49999999999432
 20
153.50000000000011
 30
0.0
 11
-466.49999999999432
 21
165.50000000000031
 31
0.0
  0
LINE
  5
813
  8
0
 10
-466.49999999999432
 20
165.50000000000031
 30
0.0
 11
-478.49999999999437
 21
177.50000000000031
 31
0.0
  0
LINE
  5
814
  8
0
 10
-478.49999999999437
 20
177.50000000000031
 30
0.0
 11
-490.49999999999147
 21
189.50000000000051
 31
0.0
  0
LINE
  5
815
  8
0
 10
-490.49999999999147
 20
189.50000000000051
 30
0.0
 11
-502.49999999999147
 21
201.5000000000006
 31
0.0
  0
LINE
  5
816
  8
0
 10
-502.49999999999147
 20
201.5000000000006
 30
0.0
 11
-514.4999999999917
 21
213.50000000000051
 31
0.0
  0
LINE
  5
817
  8
0
 10
-514.4999999999917
 20
213.50000000000051
 30
0.0
 11
-526.4999999999917
 21
225.5000000000006
 31
0.0
  0
LINE
  5
818
  8
0
 10
-526.4999999999917
 20
225.5000000000006
 30
0.0
 11
-538.49999999999181
 21
237.5000000000006
 31
0.0
  0
LINE
  5
819
  8
0
 10
-538.49999999999181
 20
237.5000000000006
 30
0.0
 11
-550.49999999999204
 21
249.5000000000004
 31
0.0
  0
LINE
  5
81A
  8
0
 10
-550.49999999999204
 20
249.5000000000004
 30
0.0
 11
-562.49999999999204
 21
261.50000000000051
 31
0.0
  0
LINE
  5
81B
  8
0
 10
-562.49999999999204
 20
261.50000000000051
 30
0.0
 11
-574.49999999999204
 21
273.50000000000063
 31
0.0
  0
LINE
  5
81C
  8
0
 10
-574.499999999995
 20
273.50000000000028
 30
0.0
 11
-586.49999999999204
 21
285.50000000000063
 31
0.0
  0
LINE
  5
81D
  8
0
 10
-586.49999999999204
 20
285.50000000000063
 30
0.0
 11
-598.49999999999227
 21
297.50000000000063
 31
0.0
  0
LINE
  5
81E
  8
0
 10
-598.49999999999227
 20
297.50000000000063
 30
0.0
 11
-610.49999999999227
 21
309.50000000000051
 31
0.0
  0
LINE
  5
81F
  8
0
 10
-610.49999999999227
 20
309.50000000000051
 30
0.0
 11
-622.49999999999227
 21
321.50000000000063
 31
0.0
  0
LINE
  5
820
  8
0
 10
-622.49999999999227
 20
321.50000000000063
 30
0.0
 11
-634.4999999999925
 21
333.50000000000063
 31
0.0
  0
LINE
  5
821
  8
0
 10
-634.4999999999925
 20
333.50000000000063
 30
0.0
 11
-646.4999999999925
 21
345.5000000000004
 31
0.0
  0
LINE
  5
822
  8
0
 10
-646.4999999999925
 20
345.5000000000004
 30
0.0
 11
-658.4999999999925
 21
357.50000000000063
 31
0.0
  0
LINE
  5
823
  8
0
 10
-658.4999999999925
 20
357.50000000000063
 30
0.0
 11
-670.49999999999272
 21
369.50000000000063
 31
0.0
  0
LINE
  5
824
  8
0
 10
-670.49999999999557
 20
369.50000000000023
 30
0.0
 11
-682.49999999999272
 21
381.50000000000051
 31
0.0
  0
LINE
  5
825
  8
0
 10
-682.49999999999272
 20
381.50000000000051
 30
0.0
 11
-694.49999999999295
 21
393.5000000000004
 31
0.0
  0
LINE
  5
826
  8
0
 10
-694.49999999999295
 20
393.5000000000004
 30
0.0
 11
-706.49999999999295
 21
405.50000000000028
 31
0.0
  0
LINE
  5
827
  8
0
 10
-706.49999999999295
 20
405.50000000000028
 30
0.0
 11
-718.49999999999295
 21
417.5000000000004
 31
0.0
  0
LINE
  5
828
  8
0
 10
-718.49999999999295
 20
417.5000000000004
 30
0.0
 11
-730.49999999999318
 21
429.5000000000004
 31
0.0
  0
LINE
  5
829
  8
0
 10
-730.49999999999318
 20
429.5000000000004
 30
0.0
 11
-742.49999999999318
 21
441.50000000000028
 31
0.0
  0
LINE
  5
82A
  8
0
 10
-742.49999999999318
 20
441.50000000000028
 30
0.0
 11
-754.49999999999307
 21
453.5000000000004
 31
0.0
  0
LINE
  5
82B
  8
0
 10
-754.49999999999307
 20
453.5000000000004
 30
0.0
 11
-766.49999999999341
 21
465.5000000000004
 31
0.0
  0
LINE
  5
82C
  8
0
 10
-766.49999999999625
 20
465.50000000000023
 30
0.0
 11
-778.49999999999341
 21
477.50000000000051
 31
0.0
  0
LINE
  5
82D
  8
0
 10
-778.49999999999341
 20
477.50000000000051
 30
0.0
 11
-790.49999999999341
 21
489.50000000000051
 31
0.0
  0
LINE
  5
82E
  8
0
 10
-790.49999999999341
 20
489.50000000000051
 30
0.0
 11
-802.49999999999363
 21
501.50000000000051
 31
0.0
  0
LINE
  5
82F
  8
0
 10
-802.49999999999363
 20
501.50000000000051
 30
0.0
 11
-814.49999999999352
 21
513.50000000000057
 31
0.0
  0
LINE
  5
830
  8
0
 10
-814.49999999999352
 20
513.50000000000057
 30
0.0
 11
-826.49999999999363
 21
525.50000000000057
 31
0.0
  0
LINE
  5
831
  8
0
 10
-826.49999999999363
 20
525.50000000000057
 30
0.0
 11
-838.49999999999386
 21
537.50000000000057
 31
0.0
  0
LINE
  5
832
  8
0
 10
-838.49999999999386
 20
537.50000000000057
 30
0.0
 11
-850.49999999999375
 21
549.50000000000045
 31
0.0
  0
LINE
  5
833
  8
0
 10
850.49999999999682
 20
549.50000000000023
 30
0.0
 11
994.49999999999682
 21
549.50000000000023
 31
0.0
  0
LINE
  5
835
  8
0
 10
-994.49999999999704
 20
-369.5
 30
0.0
 11
994.49999999999682
 21
-369.5
 31
0.0
  0
LINE
  5
836
  8
0
 10
994.49999999999682
 20
549.50000000000023
 30
0.0
 11
994.49999999999682
 21
-369.5
 31
0.0
  0
LINE
  5
837
  8
0
 10
-850.49999999999704
 20
549.50000000000023
 30
0.0
 11
-994.49999999999704
 21
549.50000000000023
 31
0.0
  0
LINE
  5
838
  8
0
 10
-994.49999999999704
 20
549.50000000000023
 30
0.0
 11
-994.49999999999704
 21
-369.5
 31
0.0
  0
LINE
  5
85D
  8
0
 10
51.365245638749187
 20
59.367748207693253
 30
0.0
 11
47.551816298552779
 21
64.0
 31
0.0
  0
LINE
  5
871
  8
0
 10
-23.984172530217101
 20
-40.0
 30
0.0
 11
23.98417253021713
 21
-40.0
 31
0.0
  0
LINE
  5
872
  8
0
 10
-29.39647228045099
 20
-48.0
 30
0.0
 11
29.396472280451
 21
-48.00000000000005
 31
0.0
  0
LINE
  5
873
  8
0
 10
-35.518414742067883
 20
-56.000000000000007
 30
0.0
 11
35.518414742067932
 21
-55.999999999999972
 31
0.0
  0
LINE
  5
874
  8
0
 10
-42.009858468661633
 20
-64.000000000000014
 30
0.0
 11
42.009858468661662
 21
-63.999999999999993
 31
0.0
  0
LINE
  5
876
  8
0
 10
-34.698396592692717
 20
-45.191157073231018
 30
0.0
 11
-29.39647228045099
 21
-48.0
 31
0.0
  0
LINE
  5
877
  8
0
 10
-29.873105051139341
 20
-38.850881309861968
 30
0.0
 11
-23.984172530217101
 21
-40.0
 31
0.0
  0
LINE
  5
879
  8
0
 10
34.698396592692752
 20
-45.191157073231018
 30
0.0
 11
29.396472280451029
 21
-48.000000000000021
 31
0.0
  0
LINE
  5
87A
  8
0
 10
29.873105051139358
 20
-38.850881309861968
 30
0.0
 11
23.98417253021713
 21
-40.0
 31
0.0
  0
LINE
  5
87B
  8
0
 10
134.78235613928109
 20
50.937498936620173
 30
0.0
 11
139.48158525793201
 21
56.000000000000007
 31
0.0
  0
LINE
  5
87C
  8
0
 10
140.3016034073072
 20
45.191157073231018
 30
0.0
 11
145.60352771954891
 21
48.000000000000021
 31
0.0
  0
LINE
  5
87D
  8
0
 10
145.1268949488605
 20
38.850881309861968
 30
0.0
 11
151.01582746978281
 21
40.0
 31
0.0
  0
LINE
  5
87E
  8
0
 10
123.6347543612507
 20
59.367748207693253
 30
0.0
 11
127.44818370144711
 21
64.0
 31
0.0
  0
LINE
  5
87F
  8
0
 10
134.78235613928109
 20
-50.937498936620173
 30
0.0
 11
139.48158525793201
 21
-56.000000000000007
 31
0.0
  0
LINE
  5
880
  8
0
 10
127.7645750344217
 20
-56.648159699123681
 30
0.0
 11
132.99014153133831
 21
-64.0
 31
0.0
  0
LINE
  5
881
  8
0
 10
140.3016034073072
 20
-45.191157073231018
 30
0.0
 11
145.60352771954891
 21
-48.000000000000021
 31
0.0
  0
LINE
  5
882
  8
0
 10
145.1268949488605
 20
-38.850881309861968
 30
0.0
 11
151.01582746978281
 21
-40.0
 31
0.0
  0
LINE
  5
883
  8
0
 10
-134.78235613928109
 20
-50.937498936620173
 30
0.0
 11
-139.48158525793201
 21
-56.000000000000007
 31
0.0
  0
LINE
  5
884
  8
0
 10
-127.7645750344217
 20
-56.648159699123681
 30
0.0
 11
-132.99014153133831
 21
-64.0
 31
0.0
  0
LINE
  5
885
  8
0
 10
-140.3016034073072
 20
-45.191157073231018
 30
0.0
 11
-145.60352771954891
 21
-48.0
 31
0.0
  0
LINE
  5
886
  8
0
 10
-145.1268949488605
 20
-38.850881309861968
 30
0.0
 11
-151.01582746978281
 21
-40.0
 31
0.0
  0
LINE
  5
887
  8
0
 10
-111.0258420342937
 20
65.397131103569478
 30
0.0
 11
-113.4011457824745
 21
71.999999999999986
 31
0.0
  0
LINE
  5
888
  8
0
 10
-134.78235613928109
 20
50.937498936620173
 30
0.0
 11
-139.48158525793201
 21
56.000000000000007
 31
0.0
  0
LINE
  5
889
  8
0
 10
-123.6347543612507
 20
59.367748207693253
 30
0.0
 11
-127.44818370144721
 21
64.0
 31
0.0
  0
LINE
  5
88A
  8
0
 10
-140.3016034073072
 20
45.191157073231018
 30
0.0
 11
-145.60352771954891
 21
48.0
 31
0.0
  0
LINE
  5
88B
  8
0
 10
-145.1268949488605
 20
38.850881309861968
 30
0.0
 11
-151.01582746978281
 21
40.0
 31
0.0
  0
ENDSEC
  0
EOF
